G04 Layer_Physical_Order=2*
G04 Layer_Color=36540*
%FSLAX23Y23*%
%MOIN*%
G70*
G01*
G75*
%ADD26C,0.014*%
%ADD27C,0.071*%
%ADD29C,0.037*%
G36*
X3001Y1553D02*
X1470D01*
Y2809D01*
X1827D01*
Y2723D01*
X1917D01*
Y2809D01*
X2090D01*
Y2723D01*
X2180D01*
Y2809D01*
X2318D01*
Y2723D01*
X2408D01*
Y2809D01*
X3001D01*
Y1553D01*
D02*
G37*
%LPC*%
G36*
X1916Y2655D02*
X1885D01*
Y2624D01*
X1895Y2628D01*
X1904Y2636D01*
X1912Y2645D01*
X1916Y2655D01*
D02*
G37*
G36*
X2179D02*
X2148D01*
Y2624D01*
X2158Y2628D01*
X2167Y2636D01*
X2175Y2645D01*
X2179Y2655D01*
D02*
G37*
G36*
X2407D02*
X2375D01*
Y2624D01*
X2386Y2628D01*
X2395Y2636D01*
X2403Y2645D01*
X2407Y2655D01*
D02*
G37*
G36*
X1860D02*
X1828D01*
X1832Y2645D01*
X1840Y2636D01*
X1849Y2628D01*
X1860Y2624D01*
Y2655D01*
D02*
G37*
G36*
X2122D02*
X2091D01*
X2095Y2645D01*
X2103Y2636D01*
X2112Y2628D01*
X2122Y2624D01*
Y2655D01*
D02*
G37*
G36*
X2351D02*
X2319D01*
X2323Y2645D01*
X2331Y2636D01*
X2340Y2628D01*
X2351Y2624D01*
Y2655D01*
D02*
G37*
G36*
X1885Y2712D02*
Y2681D01*
X1916D01*
X1912Y2691D01*
X1904Y2700D01*
X1895Y2708D01*
X1885Y2712D01*
D02*
G37*
G36*
X2148D02*
Y2681D01*
X2179D01*
X2175Y2691D01*
X2167Y2700D01*
X2158Y2708D01*
X2148Y2712D01*
D02*
G37*
G36*
X2375D02*
Y2681D01*
X2407D01*
X2403Y2691D01*
X2395Y2700D01*
X2386Y2708D01*
X2375Y2712D01*
D02*
G37*
G36*
X1860D02*
X1849Y2708D01*
X1840Y2700D01*
X1832Y2691D01*
X1828Y2681D01*
X1860D01*
Y2712D01*
D02*
G37*
G36*
X2122D02*
X2112Y2708D01*
X2103Y2700D01*
X2095Y2691D01*
X2091Y2681D01*
X2122D01*
Y2712D01*
D02*
G37*
G36*
X2351D02*
X2340Y2708D01*
X2331Y2700D01*
X2323Y2691D01*
X2319Y2681D01*
X2351D01*
Y2712D01*
D02*
G37*
%LPD*%
D26*
X2214Y2020D02*
D03*
X2194D02*
D03*
X2234D02*
D03*
Y2000D02*
D03*
X2214D02*
D03*
X2194D02*
D03*
Y2040D02*
D03*
X2214D02*
D03*
X2234D02*
D03*
D27*
X2363Y2668D02*
D03*
X1872D02*
D03*
X2135D02*
D03*
D29*
X2960Y2720D02*
D03*
Y2640D02*
D03*
Y2560D02*
D03*
Y2480D02*
D03*
Y2400D02*
D03*
Y2320D02*
D03*
Y2240D02*
D03*
Y2000D02*
D03*
Y1840D02*
D03*
Y1760D02*
D03*
Y1680D02*
D03*
Y1600D02*
D03*
X2880Y2720D02*
D03*
Y2640D02*
D03*
Y2560D02*
D03*
Y2480D02*
D03*
Y2400D02*
D03*
Y2320D02*
D03*
Y2240D02*
D03*
Y1840D02*
D03*
Y1760D02*
D03*
Y1680D02*
D03*
Y1600D02*
D03*
X2800Y2720D02*
D03*
Y2640D02*
D03*
Y2560D02*
D03*
Y2480D02*
D03*
Y2400D02*
D03*
Y2320D02*
D03*
Y2240D02*
D03*
Y1840D02*
D03*
Y1760D02*
D03*
Y1680D02*
D03*
Y1600D02*
D03*
X2720Y2720D02*
D03*
Y2640D02*
D03*
Y2560D02*
D03*
Y2480D02*
D03*
Y2400D02*
D03*
Y2320D02*
D03*
Y2240D02*
D03*
Y1840D02*
D03*
Y1760D02*
D03*
Y1680D02*
D03*
Y1600D02*
D03*
X2640Y2720D02*
D03*
Y2640D02*
D03*
Y2560D02*
D03*
Y2480D02*
D03*
Y2400D02*
D03*
Y2320D02*
D03*
Y2240D02*
D03*
Y2160D02*
D03*
Y1920D02*
D03*
Y1840D02*
D03*
Y1760D02*
D03*
Y1680D02*
D03*
Y1600D02*
D03*
X2560Y2720D02*
D03*
Y2640D02*
D03*
Y2560D02*
D03*
Y2480D02*
D03*
Y2400D02*
D03*
Y2320D02*
D03*
Y2240D02*
D03*
Y2160D02*
D03*
Y1920D02*
D03*
Y1840D02*
D03*
Y1760D02*
D03*
Y1680D02*
D03*
Y1600D02*
D03*
X2480Y2160D02*
D03*
Y1920D02*
D03*
Y1840D02*
D03*
Y1760D02*
D03*
Y1680D02*
D03*
Y1600D02*
D03*
X2400Y1920D02*
D03*
Y1840D02*
D03*
Y1760D02*
D03*
Y1680D02*
D03*
Y1600D02*
D03*
X2320Y2560D02*
D03*
Y2480D02*
D03*
Y2400D02*
D03*
Y2320D02*
D03*
Y1920D02*
D03*
Y1840D02*
D03*
Y1760D02*
D03*
Y1680D02*
D03*
Y1600D02*
D03*
X2240Y1840D02*
D03*
Y1760D02*
D03*
Y1680D02*
D03*
Y1600D02*
D03*
X2160Y2560D02*
D03*
Y2480D02*
D03*
Y1840D02*
D03*
Y1760D02*
D03*
Y1680D02*
D03*
Y1600D02*
D03*
X2080Y2560D02*
D03*
Y2480D02*
D03*
Y1920D02*
D03*
Y1840D02*
D03*
Y1760D02*
D03*
Y1680D02*
D03*
Y1600D02*
D03*
X2000Y1920D02*
D03*
Y1840D02*
D03*
Y1760D02*
D03*
Y1680D02*
D03*
Y1600D02*
D03*
X1920Y2080D02*
D03*
Y1840D02*
D03*
Y1760D02*
D03*
Y1680D02*
D03*
Y1600D02*
D03*
X1840Y2560D02*
D03*
Y2480D02*
D03*
Y2400D02*
D03*
Y2320D02*
D03*
Y2240D02*
D03*
Y2160D02*
D03*
Y2080D02*
D03*
Y1920D02*
D03*
Y1840D02*
D03*
Y1760D02*
D03*
Y1680D02*
D03*
Y1600D02*
D03*
X1760Y2720D02*
D03*
Y2640D02*
D03*
Y2560D02*
D03*
Y2480D02*
D03*
Y2400D02*
D03*
Y2320D02*
D03*
Y2240D02*
D03*
Y1840D02*
D03*
Y1760D02*
D03*
Y1680D02*
D03*
Y1600D02*
D03*
X1680Y2720D02*
D03*
Y2640D02*
D03*
Y2560D02*
D03*
Y2480D02*
D03*
Y2400D02*
D03*
Y2320D02*
D03*
Y2240D02*
D03*
Y1840D02*
D03*
Y1760D02*
D03*
Y1680D02*
D03*
Y1600D02*
D03*
X1600Y2720D02*
D03*
Y2640D02*
D03*
Y2560D02*
D03*
Y2480D02*
D03*
Y2400D02*
D03*
Y2320D02*
D03*
Y2240D02*
D03*
Y1840D02*
D03*
Y1760D02*
D03*
Y1680D02*
D03*
Y1600D02*
D03*
X1520Y2720D02*
D03*
Y2640D02*
D03*
Y2560D02*
D03*
Y2480D02*
D03*
Y2400D02*
D03*
Y2320D02*
D03*
Y2240D02*
D03*
Y2000D02*
D03*
Y1840D02*
D03*
Y1760D02*
D03*
Y1680D02*
D03*
Y1600D02*
D03*
X2008Y2254D02*
D03*
Y2354D02*
D03*
X2162Y2345D02*
D03*
X2163Y2232D02*
D03*
M02*
