G04 Layer_Physical_Order=4*
G04 Layer_Color=16711680*
%FSLAX25Y25*%
%MOIN*%
G70*
G01*
G75*
%ADD26R,0.07087X0.07087*%
%ADD27C,0.07087*%
%ADD28C,0.03700*%
G36*
X299761Y156439D02*
X147539D01*
Y280900D01*
X182857D01*
Y272457D01*
X191543D01*
Y280900D01*
X209157D01*
Y272457D01*
X217843D01*
Y280900D01*
X231957D01*
Y272457D01*
X240643D01*
Y280900D01*
X299761D01*
Y156439D01*
D02*
G37*
%LPC*%
G36*
X191600Y265550D02*
X188450D01*
Y262400D01*
X189491Y262831D01*
X190440Y263560D01*
X191169Y264509D01*
X191600Y265550D01*
D02*
G37*
G36*
X217900D02*
X214750D01*
Y262400D01*
X215791Y262831D01*
X216740Y263560D01*
X217469Y264509D01*
X217900Y265550D01*
D02*
G37*
G36*
X240700D02*
X237550D01*
Y262400D01*
X238591Y262831D01*
X239540Y263560D01*
X240269Y264509D01*
X240700Y265550D01*
D02*
G37*
G36*
X185950D02*
X182800D01*
X183231Y264509D01*
X183960Y263560D01*
X184909Y262831D01*
X185950Y262400D01*
Y265550D01*
D02*
G37*
G36*
X212250D02*
X209100D01*
X209531Y264509D01*
X210260Y263560D01*
X211209Y262831D01*
X212250Y262400D01*
Y265550D01*
D02*
G37*
G36*
X235050D02*
X231900D01*
X232331Y264509D01*
X233060Y263560D01*
X234009Y262831D01*
X235050Y262400D01*
Y265550D01*
D02*
G37*
G36*
X188450Y271200D02*
Y268050D01*
X191600D01*
X191169Y269091D01*
X190440Y270040D01*
X189491Y270769D01*
X188450Y271200D01*
D02*
G37*
G36*
X214750D02*
Y268050D01*
X217900D01*
X217469Y269091D01*
X216740Y270040D01*
X215791Y270769D01*
X214750Y271200D01*
D02*
G37*
G36*
X237550D02*
Y268050D01*
X240700D01*
X240269Y269091D01*
X239540Y270040D01*
X238591Y270769D01*
X237550Y271200D01*
D02*
G37*
G36*
X185950D02*
X184909Y270769D01*
X183960Y270040D01*
X183231Y269091D01*
X182800Y268050D01*
X185950D01*
Y271200D01*
D02*
G37*
G36*
X212250D02*
X211209Y270769D01*
X210260Y270040D01*
X209531Y269091D01*
X209100Y268050D01*
X212250D01*
Y271200D01*
D02*
G37*
G36*
X235050D02*
X234009Y270769D01*
X233060Y270040D01*
X232331Y269091D01*
X231900Y268050D01*
X235050D01*
Y271200D01*
D02*
G37*
%LPD*%
D26*
X213500Y276800D02*
D03*
X187200D02*
D03*
X236300D02*
D03*
D27*
X213500Y266800D02*
D03*
X187200D02*
D03*
X236300D02*
D03*
D28*
X288000Y272000D02*
D03*
Y264000D02*
D03*
Y256000D02*
D03*
Y248000D02*
D03*
Y240000D02*
D03*
Y232000D02*
D03*
Y224000D02*
D03*
Y184000D02*
D03*
Y176000D02*
D03*
Y168000D02*
D03*
Y160000D02*
D03*
X280000Y272000D02*
D03*
Y264000D02*
D03*
Y256000D02*
D03*
Y248000D02*
D03*
Y240000D02*
D03*
Y232000D02*
D03*
Y224000D02*
D03*
Y184000D02*
D03*
Y176000D02*
D03*
Y168000D02*
D03*
Y160000D02*
D03*
X272000Y272000D02*
D03*
Y264000D02*
D03*
Y256000D02*
D03*
Y248000D02*
D03*
Y240000D02*
D03*
Y232000D02*
D03*
Y224000D02*
D03*
Y184000D02*
D03*
Y176000D02*
D03*
Y168000D02*
D03*
Y160000D02*
D03*
X264000Y272000D02*
D03*
Y264000D02*
D03*
Y256000D02*
D03*
Y248000D02*
D03*
Y240000D02*
D03*
Y232000D02*
D03*
Y224000D02*
D03*
Y216000D02*
D03*
Y192000D02*
D03*
Y184000D02*
D03*
Y176000D02*
D03*
Y168000D02*
D03*
Y160000D02*
D03*
X256000Y272000D02*
D03*
Y264000D02*
D03*
Y256000D02*
D03*
Y248000D02*
D03*
Y240000D02*
D03*
Y232000D02*
D03*
Y224000D02*
D03*
Y216000D02*
D03*
Y192000D02*
D03*
Y184000D02*
D03*
Y176000D02*
D03*
Y168000D02*
D03*
Y160000D02*
D03*
X248000Y216000D02*
D03*
Y192000D02*
D03*
Y184000D02*
D03*
Y176000D02*
D03*
Y168000D02*
D03*
Y160000D02*
D03*
X240000Y192000D02*
D03*
Y184000D02*
D03*
Y176000D02*
D03*
Y168000D02*
D03*
Y160000D02*
D03*
X232000Y256000D02*
D03*
Y248000D02*
D03*
Y240000D02*
D03*
Y232000D02*
D03*
Y192000D02*
D03*
Y184000D02*
D03*
Y176000D02*
D03*
Y168000D02*
D03*
Y160000D02*
D03*
X224000Y184000D02*
D03*
Y176000D02*
D03*
Y168000D02*
D03*
Y160000D02*
D03*
X216000Y256000D02*
D03*
Y248000D02*
D03*
Y184000D02*
D03*
Y176000D02*
D03*
Y168000D02*
D03*
Y160000D02*
D03*
X208000Y256000D02*
D03*
Y248000D02*
D03*
Y192000D02*
D03*
Y184000D02*
D03*
Y176000D02*
D03*
Y168000D02*
D03*
Y160000D02*
D03*
X200000Y192000D02*
D03*
Y184000D02*
D03*
Y176000D02*
D03*
Y168000D02*
D03*
Y160000D02*
D03*
X192000Y208000D02*
D03*
Y184000D02*
D03*
Y176000D02*
D03*
Y168000D02*
D03*
Y160000D02*
D03*
X184000Y256000D02*
D03*
Y248000D02*
D03*
Y240000D02*
D03*
Y232000D02*
D03*
Y224000D02*
D03*
Y216000D02*
D03*
Y208000D02*
D03*
Y192000D02*
D03*
Y184000D02*
D03*
Y176000D02*
D03*
Y168000D02*
D03*
Y160000D02*
D03*
X176000Y272000D02*
D03*
Y264000D02*
D03*
Y256000D02*
D03*
Y248000D02*
D03*
Y240000D02*
D03*
Y232000D02*
D03*
Y224000D02*
D03*
Y184000D02*
D03*
Y176000D02*
D03*
Y168000D02*
D03*
Y160000D02*
D03*
X168000Y272000D02*
D03*
Y264000D02*
D03*
Y256000D02*
D03*
Y248000D02*
D03*
Y240000D02*
D03*
Y232000D02*
D03*
Y224000D02*
D03*
Y184000D02*
D03*
Y176000D02*
D03*
Y168000D02*
D03*
Y160000D02*
D03*
X160000Y272000D02*
D03*
Y264000D02*
D03*
Y256000D02*
D03*
Y248000D02*
D03*
Y240000D02*
D03*
Y232000D02*
D03*
Y224000D02*
D03*
Y184000D02*
D03*
Y176000D02*
D03*
Y168000D02*
D03*
Y160000D02*
D03*
X152000Y272000D02*
D03*
Y264000D02*
D03*
Y256000D02*
D03*
Y248000D02*
D03*
Y240000D02*
D03*
Y232000D02*
D03*
Y224000D02*
D03*
Y200000D02*
D03*
Y184000D02*
D03*
Y176000D02*
D03*
Y168000D02*
D03*
Y160000D02*
D03*
X216300Y223200D02*
D03*
X216200Y234500D02*
D03*
X200800Y235400D02*
D03*
Y225400D02*
D03*
M02*
