M48
;Layer_Color=9474304
;FILE_FORMAT=2:5
INCH,LZ
;TYPE=PLATED
T1F00S00C0.00984
T2F00S00C0.02100
T3F00S00C0.03900
%
T01
X0219413Y0199969
Y0201969
X0221413
X0223413
Y0199969
X0221413
Y0203969
X0219413
X0223413
T02
X016Y016
X0168
X0176
X0184
X0192
X02
X0208
X0216
X0224
X0232
X024
X0248
X0256
X0264
X0272
X028
X0288
Y0168
Y0176
Y0184
X028
Y0176
Y0168
X0272
Y0176
Y0184
X0264
Y0192
X0256
Y0184
Y0176
X0264
Y0168
X0256
X0248
Y0176
Y0184
Y0192
X024
Y0184
Y0176
Y0168
X0232
Y0176
Y0184
Y0192
X0224Y0184
Y0176
Y0168
X0216
Y0176
Y0184
X0208
Y0192
X02
Y0184
Y0176
X0208
Y0168
X02
X0192
Y0176
Y0184
X0184
Y0192
Y0208
X0192
X0184Y0216
Y0224
Y0232
Y024
Y0248
Y0256
X0176
Y0264
Y0272
X0168
Y0264
Y0256
Y0248
X0176
Y024
Y0232
Y0224
X0168
Y0232
Y024
X016
Y0248
Y0256
Y0264
Y0272
Y0232
Y0224
Y0184
X0168
X0176
Y0176
X0184
Y0168
X0176
X0168
Y0176
X016
Y0168
X02008Y02254
Y02354
X02162Y02345
X02163Y02232
X0232Y0232
Y024
Y0248
Y0256
X0216
Y0248
X0208
Y0256
X0256
X0264
X0272
X028
X0288
Y0264
Y0272
X028
Y0264
X0272
Y0272
X0264
Y0264
X0256
Y0272
Y0248
X0264
X0272
X028
X0288
Y024
Y0232
Y0224
X028
Y0232
Y024
X0272
Y0232
Y0224
X0264
Y0232
Y024
X0256
Y0232
Y0224
Y0216
X0264
X0248
X0152Y0224
Y0232
Y024
Y0248
Y0256
Y0264
Y0272
Y02
Y0184
Y0176
Y0168
Y016
T03
X01872Y02668
Y02768
X02135
Y02668
X02363
Y02768
M30
