G04 Layer_Physical_Order=4*
G04 Layer_Color=16711680*
%FSLAX23Y23*%
%MOIN*%
G70*
G01*
G75*
%ADD25R,0.071X0.071*%
%ADD26C,0.071*%
%ADD27C,0.014*%
%ADD28C,0.037*%
G36*
X1827Y2812D02*
Y2723D01*
X1917D01*
Y2812D01*
X2090D01*
Y2723D01*
X2180D01*
Y2812D01*
X2318Y2812D01*
Y2723D01*
X2408D01*
Y2812D01*
X3010D01*
Y1553D01*
X1469Y1553D01*
Y2812D01*
X1827D01*
D02*
G37*
%LPC*%
G36*
X1917Y2663D02*
X1877D01*
Y2623D01*
X1884Y2624D01*
X1895Y2628D01*
X1904Y2636D01*
X1912Y2645D01*
X1916Y2656D01*
X1917Y2663D01*
D02*
G37*
G36*
X2180D02*
X2140D01*
Y2623D01*
X2147Y2624D01*
X2158Y2628D01*
X2167Y2636D01*
X2175Y2645D01*
X2179Y2656D01*
X2180Y2663D01*
D02*
G37*
G36*
X2358D02*
X2318D01*
X2319Y2656D01*
X2323Y2645D01*
X2331Y2636D01*
X2340Y2628D01*
X2351Y2624D01*
X2358Y2623D01*
Y2663D01*
D02*
G37*
G36*
X1867D02*
X1827D01*
X1828Y2656D01*
X1832Y2645D01*
X1840Y2636D01*
X1849Y2628D01*
X1860Y2624D01*
X1867Y2623D01*
Y2663D01*
D02*
G37*
G36*
X2130D02*
X2090D01*
X2091Y2656D01*
X2095Y2645D01*
X2103Y2636D01*
X2112Y2628D01*
X2123Y2624D01*
X2130Y2623D01*
Y2663D01*
D02*
G37*
G36*
X2408D02*
X2368D01*
Y2623D01*
X2375Y2624D01*
X2386Y2628D01*
X2395Y2636D01*
X2403Y2645D01*
X2407Y2656D01*
X2408Y2663D01*
D02*
G37*
G36*
X1877Y2713D02*
Y2673D01*
X1917D01*
X1916Y2680D01*
X1912Y2691D01*
X1904Y2700D01*
X1895Y2708D01*
X1884Y2712D01*
X1877Y2713D01*
D02*
G37*
G36*
X2140D02*
Y2673D01*
X2180D01*
X2179Y2680D01*
X2175Y2691D01*
X2167Y2700D01*
X2158Y2708D01*
X2147Y2712D01*
X2140Y2713D01*
D02*
G37*
G36*
X2368D02*
Y2673D01*
X2408D01*
X2407Y2680D01*
X2403Y2691D01*
X2395Y2700D01*
X2386Y2708D01*
X2375Y2712D01*
X2368Y2713D01*
D02*
G37*
G36*
X1867D02*
X1860Y2712D01*
X1849Y2708D01*
X1840Y2700D01*
X1832Y2691D01*
X1828Y2680D01*
X1827Y2673D01*
X1867D01*
Y2713D01*
D02*
G37*
G36*
X2130D02*
X2123Y2712D01*
X2112Y2708D01*
X2103Y2700D01*
X2095Y2691D01*
X2091Y2680D01*
X2090Y2673D01*
X2130D01*
Y2713D01*
D02*
G37*
G36*
X2358D02*
X2351Y2712D01*
X2340Y2708D01*
X2331Y2700D01*
X2323Y2691D01*
X2319Y2680D01*
X2318Y2673D01*
X2358D01*
Y2713D01*
D02*
G37*
%LPD*%
D25*
X2135Y2768D02*
D03*
X1872D02*
D03*
X2363D02*
D03*
D26*
X2135Y2668D02*
D03*
X1872D02*
D03*
X2363D02*
D03*
D27*
X2234Y2040D02*
D03*
X2214D02*
D03*
X2194D02*
D03*
Y2000D02*
D03*
X2214D02*
D03*
X2234D02*
D03*
Y2020D02*
D03*
X2194D02*
D03*
X2214D02*
D03*
D28*
X2163Y2232D02*
D03*
X2162Y2345D02*
D03*
X2008Y2354D02*
D03*
Y2254D02*
D03*
X1520Y1600D02*
D03*
Y1680D02*
D03*
Y1760D02*
D03*
Y1840D02*
D03*
Y2000D02*
D03*
Y2240D02*
D03*
Y2320D02*
D03*
Y2400D02*
D03*
Y2480D02*
D03*
Y2560D02*
D03*
Y2640D02*
D03*
Y2720D02*
D03*
X1600Y1600D02*
D03*
Y1680D02*
D03*
Y1760D02*
D03*
Y1840D02*
D03*
Y2240D02*
D03*
Y2320D02*
D03*
Y2400D02*
D03*
Y2480D02*
D03*
Y2560D02*
D03*
Y2640D02*
D03*
Y2720D02*
D03*
X1680Y1600D02*
D03*
Y1680D02*
D03*
Y1760D02*
D03*
Y1840D02*
D03*
Y2240D02*
D03*
Y2320D02*
D03*
Y2400D02*
D03*
Y2480D02*
D03*
Y2560D02*
D03*
Y2640D02*
D03*
Y2720D02*
D03*
X1760Y1600D02*
D03*
Y1680D02*
D03*
Y1760D02*
D03*
Y1840D02*
D03*
Y2240D02*
D03*
Y2320D02*
D03*
Y2400D02*
D03*
Y2480D02*
D03*
Y2560D02*
D03*
Y2640D02*
D03*
Y2720D02*
D03*
X1840Y1600D02*
D03*
Y1680D02*
D03*
Y1760D02*
D03*
Y1840D02*
D03*
Y1920D02*
D03*
Y2080D02*
D03*
Y2160D02*
D03*
Y2240D02*
D03*
Y2320D02*
D03*
Y2400D02*
D03*
Y2480D02*
D03*
Y2560D02*
D03*
X1920Y1600D02*
D03*
Y1680D02*
D03*
Y1760D02*
D03*
Y1840D02*
D03*
Y2080D02*
D03*
X2000Y1600D02*
D03*
Y1680D02*
D03*
Y1760D02*
D03*
Y1840D02*
D03*
Y1920D02*
D03*
X2080Y1600D02*
D03*
Y1680D02*
D03*
Y1760D02*
D03*
Y1840D02*
D03*
Y1920D02*
D03*
Y2480D02*
D03*
Y2560D02*
D03*
X2160Y1600D02*
D03*
Y1680D02*
D03*
Y1760D02*
D03*
Y1840D02*
D03*
Y2480D02*
D03*
Y2560D02*
D03*
X2240Y1600D02*
D03*
Y1680D02*
D03*
Y1760D02*
D03*
Y1840D02*
D03*
X2320Y1600D02*
D03*
Y1680D02*
D03*
Y1760D02*
D03*
Y1840D02*
D03*
Y1920D02*
D03*
Y2320D02*
D03*
Y2400D02*
D03*
Y2480D02*
D03*
Y2560D02*
D03*
X2400Y1600D02*
D03*
Y1680D02*
D03*
Y1760D02*
D03*
Y1840D02*
D03*
Y1920D02*
D03*
X2480Y1600D02*
D03*
Y1680D02*
D03*
Y1760D02*
D03*
Y1840D02*
D03*
Y1920D02*
D03*
Y2160D02*
D03*
X2560Y1600D02*
D03*
Y1680D02*
D03*
Y1760D02*
D03*
Y1840D02*
D03*
Y1920D02*
D03*
Y2160D02*
D03*
Y2240D02*
D03*
Y2320D02*
D03*
Y2400D02*
D03*
Y2480D02*
D03*
Y2560D02*
D03*
Y2640D02*
D03*
Y2720D02*
D03*
X2640Y1600D02*
D03*
Y1680D02*
D03*
Y1760D02*
D03*
Y1840D02*
D03*
Y1920D02*
D03*
Y2160D02*
D03*
Y2240D02*
D03*
Y2320D02*
D03*
Y2400D02*
D03*
Y2480D02*
D03*
Y2560D02*
D03*
Y2640D02*
D03*
Y2720D02*
D03*
X2720Y1600D02*
D03*
Y1680D02*
D03*
Y1760D02*
D03*
Y1840D02*
D03*
Y2240D02*
D03*
Y2320D02*
D03*
Y2400D02*
D03*
Y2480D02*
D03*
Y2560D02*
D03*
Y2640D02*
D03*
Y2720D02*
D03*
X2800Y1600D02*
D03*
Y1680D02*
D03*
Y1760D02*
D03*
Y1840D02*
D03*
Y2240D02*
D03*
Y2320D02*
D03*
Y2400D02*
D03*
Y2480D02*
D03*
Y2560D02*
D03*
Y2640D02*
D03*
Y2720D02*
D03*
X2880Y1600D02*
D03*
Y1680D02*
D03*
Y1760D02*
D03*
Y1840D02*
D03*
Y2240D02*
D03*
Y2320D02*
D03*
Y2400D02*
D03*
Y2480D02*
D03*
Y2560D02*
D03*
Y2640D02*
D03*
Y2720D02*
D03*
X2960Y1600D02*
D03*
Y1680D02*
D03*
Y1760D02*
D03*
Y1840D02*
D03*
Y2000D02*
D03*
Y2240D02*
D03*
Y2320D02*
D03*
Y2400D02*
D03*
Y2480D02*
D03*
Y2560D02*
D03*
Y2640D02*
D03*
Y2720D02*
D03*
M02*
