G04 Layer_Physical_Order=3*
G04 Layer_Color=16440176*
%FSLAX23Y23*%
%MOIN*%
G70*
G01*
G75*
%ADD28R,0.071X0.071*%
G36*
X3001Y1553D02*
X1470D01*
Y2809D01*
X1827D01*
Y2780D01*
X1872D01*
X1917D01*
Y2809D01*
X2090D01*
Y2723D01*
X2180D01*
Y2809D01*
X2318D01*
Y2723D01*
X2408D01*
Y2809D01*
X3001D01*
Y1553D01*
D02*
G37*
%LPC*%
G36*
X1840Y1869D02*
X1833Y1868D01*
X1826Y1865D01*
X1820Y1860D01*
X1815Y1854D01*
X1812Y1847D01*
X1811Y1840D01*
X1812Y1833D01*
X1815Y1826D01*
X1820Y1820D01*
X1826Y1815D01*
X1833Y1812D01*
X1840Y1811D01*
X1847Y1812D01*
X1854Y1815D01*
X1860Y1820D01*
X1865Y1826D01*
X1868Y1833D01*
X1869Y1840D01*
X1868Y1847D01*
X1865Y1854D01*
X1860Y1860D01*
X1854Y1865D01*
X1847Y1868D01*
X1840Y1869D01*
D02*
G37*
G36*
X1920D02*
X1913Y1868D01*
X1906Y1865D01*
X1900Y1860D01*
X1895Y1854D01*
X1892Y1847D01*
X1891Y1840D01*
X1892Y1833D01*
X1895Y1826D01*
X1900Y1820D01*
X1906Y1815D01*
X1913Y1812D01*
X1920Y1811D01*
X1927Y1812D01*
X1934Y1815D01*
X1940Y1820D01*
X1945Y1826D01*
X1948Y1833D01*
X1949Y1840D01*
X1948Y1847D01*
X1945Y1854D01*
X1940Y1860D01*
X1934Y1865D01*
X1927Y1868D01*
X1920Y1869D01*
D02*
G37*
G36*
X1760D02*
X1753Y1868D01*
X1746Y1865D01*
X1740Y1860D01*
X1735Y1854D01*
X1732Y1847D01*
X1731Y1840D01*
X1732Y1833D01*
X1735Y1826D01*
X1740Y1820D01*
X1746Y1815D01*
X1753Y1812D01*
X1760Y1811D01*
X1767Y1812D01*
X1774Y1815D01*
X1780Y1820D01*
X1785Y1826D01*
X1788Y1833D01*
X1789Y1840D01*
X1788Y1847D01*
X1785Y1854D01*
X1780Y1860D01*
X1774Y1865D01*
X1767Y1868D01*
X1760Y1869D01*
D02*
G37*
G36*
X1600D02*
X1593Y1868D01*
X1586Y1865D01*
X1580Y1860D01*
X1575Y1854D01*
X1572Y1847D01*
X1571Y1840D01*
X1572Y1833D01*
X1575Y1826D01*
X1580Y1820D01*
X1586Y1815D01*
X1593Y1812D01*
X1600Y1811D01*
X1607Y1812D01*
X1614Y1815D01*
X1620Y1820D01*
X1625Y1826D01*
X1628Y1833D01*
X1629Y1840D01*
X1628Y1847D01*
X1625Y1854D01*
X1620Y1860D01*
X1614Y1865D01*
X1607Y1868D01*
X1600Y1869D01*
D02*
G37*
G36*
X1680D02*
X1673Y1868D01*
X1666Y1865D01*
X1660Y1860D01*
X1655Y1854D01*
X1652Y1847D01*
X1651Y1840D01*
X1652Y1833D01*
X1655Y1826D01*
X1660Y1820D01*
X1666Y1815D01*
X1673Y1812D01*
X1680Y1811D01*
X1687Y1812D01*
X1694Y1815D01*
X1700Y1820D01*
X1705Y1826D01*
X1708Y1833D01*
X1709Y1840D01*
X1708Y1847D01*
X1705Y1854D01*
X1700Y1860D01*
X1694Y1865D01*
X1687Y1868D01*
X1680Y1869D01*
D02*
G37*
G36*
X2000D02*
X1993Y1868D01*
X1986Y1865D01*
X1980Y1860D01*
X1975Y1854D01*
X1972Y1847D01*
X1971Y1840D01*
X1972Y1833D01*
X1975Y1826D01*
X1980Y1820D01*
X1986Y1815D01*
X1993Y1812D01*
X2000Y1811D01*
X2007Y1812D01*
X2014Y1815D01*
X2020Y1820D01*
X2025Y1826D01*
X2028Y1833D01*
X2029Y1840D01*
X2028Y1847D01*
X2025Y1854D01*
X2020Y1860D01*
X2014Y1865D01*
X2007Y1868D01*
X2000Y1869D01*
D02*
G37*
G36*
X2320D02*
X2313Y1868D01*
X2306Y1865D01*
X2300Y1860D01*
X2295Y1854D01*
X2292Y1847D01*
X2291Y1840D01*
X2292Y1833D01*
X2295Y1826D01*
X2300Y1820D01*
X2306Y1815D01*
X2313Y1812D01*
X2320Y1811D01*
X2327Y1812D01*
X2334Y1815D01*
X2340Y1820D01*
X2345Y1826D01*
X2348Y1833D01*
X2349Y1840D01*
X2348Y1847D01*
X2345Y1854D01*
X2340Y1860D01*
X2334Y1865D01*
X2327Y1868D01*
X2320Y1869D01*
D02*
G37*
G36*
X2400D02*
X2393Y1868D01*
X2386Y1865D01*
X2380Y1860D01*
X2375Y1854D01*
X2372Y1847D01*
X2371Y1840D01*
X2372Y1833D01*
X2375Y1826D01*
X2380Y1820D01*
X2386Y1815D01*
X2393Y1812D01*
X2400Y1811D01*
X2407Y1812D01*
X2414Y1815D01*
X2420Y1820D01*
X2425Y1826D01*
X2428Y1833D01*
X2429Y1840D01*
X2428Y1847D01*
X2425Y1854D01*
X2420Y1860D01*
X2414Y1865D01*
X2407Y1868D01*
X2400Y1869D01*
D02*
G37*
G36*
X2240D02*
X2233Y1868D01*
X2226Y1865D01*
X2220Y1860D01*
X2215Y1854D01*
X2212Y1847D01*
X2211Y1840D01*
X2212Y1833D01*
X2215Y1826D01*
X2220Y1820D01*
X2226Y1815D01*
X2233Y1812D01*
X2240Y1811D01*
X2247Y1812D01*
X2254Y1815D01*
X2260Y1820D01*
X2265Y1826D01*
X2268Y1833D01*
X2269Y1840D01*
X2268Y1847D01*
X2265Y1854D01*
X2260Y1860D01*
X2254Y1865D01*
X2247Y1868D01*
X2240Y1869D01*
D02*
G37*
G36*
X2080D02*
X2073Y1868D01*
X2066Y1865D01*
X2060Y1860D01*
X2055Y1854D01*
X2052Y1847D01*
X2051Y1840D01*
X2052Y1833D01*
X2055Y1826D01*
X2060Y1820D01*
X2066Y1815D01*
X2073Y1812D01*
X2080Y1811D01*
X2087Y1812D01*
X2094Y1815D01*
X2100Y1820D01*
X2105Y1826D01*
X2108Y1833D01*
X2109Y1840D01*
X2108Y1847D01*
X2105Y1854D01*
X2100Y1860D01*
X2094Y1865D01*
X2087Y1868D01*
X2080Y1869D01*
D02*
G37*
G36*
X2160D02*
X2153Y1868D01*
X2146Y1865D01*
X2140Y1860D01*
X2135Y1854D01*
X2132Y1847D01*
X2131Y1840D01*
X2132Y1833D01*
X2135Y1826D01*
X2140Y1820D01*
X2146Y1815D01*
X2153Y1812D01*
X2160Y1811D01*
X2167Y1812D01*
X2174Y1815D01*
X2180Y1820D01*
X2185Y1826D01*
X2188Y1833D01*
X2189Y1840D01*
X2188Y1847D01*
X2185Y1854D01*
X2180Y1860D01*
X2174Y1865D01*
X2167Y1868D01*
X2160Y1869D01*
D02*
G37*
G36*
X1520D02*
X1513Y1868D01*
X1506Y1865D01*
X1500Y1860D01*
X1495Y1854D01*
X1492Y1847D01*
X1491Y1840D01*
X1492Y1833D01*
X1495Y1826D01*
X1500Y1820D01*
X1506Y1815D01*
X1513Y1812D01*
X1520Y1811D01*
X1527Y1812D01*
X1534Y1815D01*
X1540Y1820D01*
X1545Y1826D01*
X1548Y1833D01*
X1549Y1840D01*
X1548Y1847D01*
X1545Y1854D01*
X1540Y1860D01*
X1534Y1865D01*
X1527Y1868D01*
X1520Y1869D01*
D02*
G37*
G36*
X2400Y1789D02*
X2393Y1788D01*
X2386Y1785D01*
X2380Y1780D01*
X2375Y1774D01*
X2372Y1767D01*
X2371Y1760D01*
X2372Y1753D01*
X2375Y1746D01*
X2380Y1740D01*
X2386Y1735D01*
X2393Y1732D01*
X2400Y1731D01*
X2407Y1732D01*
X2414Y1735D01*
X2420Y1740D01*
X2425Y1746D01*
X2428Y1753D01*
X2429Y1760D01*
X2428Y1767D01*
X2425Y1774D01*
X2420Y1780D01*
X2414Y1785D01*
X2407Y1788D01*
X2400Y1789D01*
D02*
G37*
G36*
X2480D02*
X2473Y1788D01*
X2466Y1785D01*
X2460Y1780D01*
X2455Y1774D01*
X2452Y1767D01*
X2451Y1760D01*
X2452Y1753D01*
X2455Y1746D01*
X2460Y1740D01*
X2466Y1735D01*
X2473Y1732D01*
X2480Y1731D01*
X2487Y1732D01*
X2494Y1735D01*
X2500Y1740D01*
X2505Y1746D01*
X2508Y1753D01*
X2509Y1760D01*
X2508Y1767D01*
X2505Y1774D01*
X2500Y1780D01*
X2494Y1785D01*
X2487Y1788D01*
X2480Y1789D01*
D02*
G37*
G36*
X2320D02*
X2313Y1788D01*
X2306Y1785D01*
X2300Y1780D01*
X2295Y1774D01*
X2292Y1767D01*
X2291Y1760D01*
X2292Y1753D01*
X2295Y1746D01*
X2300Y1740D01*
X2306Y1735D01*
X2313Y1732D01*
X2320Y1731D01*
X2327Y1732D01*
X2334Y1735D01*
X2340Y1740D01*
X2345Y1746D01*
X2348Y1753D01*
X2349Y1760D01*
X2348Y1767D01*
X2345Y1774D01*
X2340Y1780D01*
X2334Y1785D01*
X2327Y1788D01*
X2320Y1789D01*
D02*
G37*
G36*
X2160D02*
X2153Y1788D01*
X2146Y1785D01*
X2140Y1780D01*
X2135Y1774D01*
X2132Y1767D01*
X2131Y1760D01*
X2132Y1753D01*
X2135Y1746D01*
X2140Y1740D01*
X2146Y1735D01*
X2153Y1732D01*
X2160Y1731D01*
X2167Y1732D01*
X2174Y1735D01*
X2180Y1740D01*
X2185Y1746D01*
X2188Y1753D01*
X2189Y1760D01*
X2188Y1767D01*
X2185Y1774D01*
X2180Y1780D01*
X2174Y1785D01*
X2167Y1788D01*
X2160Y1789D01*
D02*
G37*
G36*
X2240D02*
X2233Y1788D01*
X2226Y1785D01*
X2220Y1780D01*
X2215Y1774D01*
X2212Y1767D01*
X2211Y1760D01*
X2212Y1753D01*
X2215Y1746D01*
X2220Y1740D01*
X2226Y1735D01*
X2233Y1732D01*
X2240Y1731D01*
X2247Y1732D01*
X2254Y1735D01*
X2260Y1740D01*
X2265Y1746D01*
X2268Y1753D01*
X2269Y1760D01*
X2268Y1767D01*
X2265Y1774D01*
X2260Y1780D01*
X2254Y1785D01*
X2247Y1788D01*
X2240Y1789D01*
D02*
G37*
G36*
X2560D02*
X2553Y1788D01*
X2546Y1785D01*
X2540Y1780D01*
X2535Y1774D01*
X2532Y1767D01*
X2531Y1760D01*
X2532Y1753D01*
X2535Y1746D01*
X2540Y1740D01*
X2546Y1735D01*
X2553Y1732D01*
X2560Y1731D01*
X2567Y1732D01*
X2574Y1735D01*
X2580Y1740D01*
X2585Y1746D01*
X2588Y1753D01*
X2589Y1760D01*
X2588Y1767D01*
X2585Y1774D01*
X2580Y1780D01*
X2574Y1785D01*
X2567Y1788D01*
X2560Y1789D01*
D02*
G37*
G36*
X2880D02*
X2873Y1788D01*
X2866Y1785D01*
X2860Y1780D01*
X2855Y1774D01*
X2852Y1767D01*
X2851Y1760D01*
X2852Y1753D01*
X2855Y1746D01*
X2860Y1740D01*
X2866Y1735D01*
X2873Y1732D01*
X2880Y1731D01*
X2887Y1732D01*
X2894Y1735D01*
X2900Y1740D01*
X2905Y1746D01*
X2908Y1753D01*
X2909Y1760D01*
X2908Y1767D01*
X2905Y1774D01*
X2900Y1780D01*
X2894Y1785D01*
X2887Y1788D01*
X2880Y1789D01*
D02*
G37*
G36*
X2960D02*
X2953Y1788D01*
X2946Y1785D01*
X2940Y1780D01*
X2935Y1774D01*
X2932Y1767D01*
X2931Y1760D01*
X2932Y1753D01*
X2935Y1746D01*
X2940Y1740D01*
X2946Y1735D01*
X2953Y1732D01*
X2960Y1731D01*
X2967Y1732D01*
X2974Y1735D01*
X2980Y1740D01*
X2985Y1746D01*
X2988Y1753D01*
X2989Y1760D01*
X2988Y1767D01*
X2985Y1774D01*
X2980Y1780D01*
X2974Y1785D01*
X2967Y1788D01*
X2960Y1789D01*
D02*
G37*
G36*
X2800D02*
X2793Y1788D01*
X2786Y1785D01*
X2780Y1780D01*
X2775Y1774D01*
X2772Y1767D01*
X2771Y1760D01*
X2772Y1753D01*
X2775Y1746D01*
X2780Y1740D01*
X2786Y1735D01*
X2793Y1732D01*
X2800Y1731D01*
X2807Y1732D01*
X2814Y1735D01*
X2820Y1740D01*
X2825Y1746D01*
X2828Y1753D01*
X2829Y1760D01*
X2828Y1767D01*
X2825Y1774D01*
X2820Y1780D01*
X2814Y1785D01*
X2807Y1788D01*
X2800Y1789D01*
D02*
G37*
G36*
X2640D02*
X2633Y1788D01*
X2626Y1785D01*
X2620Y1780D01*
X2615Y1774D01*
X2612Y1767D01*
X2611Y1760D01*
X2612Y1753D01*
X2615Y1746D01*
X2620Y1740D01*
X2626Y1735D01*
X2633Y1732D01*
X2640Y1731D01*
X2647Y1732D01*
X2654Y1735D01*
X2660Y1740D01*
X2665Y1746D01*
X2668Y1753D01*
X2669Y1760D01*
X2668Y1767D01*
X2665Y1774D01*
X2660Y1780D01*
X2654Y1785D01*
X2647Y1788D01*
X2640Y1789D01*
D02*
G37*
G36*
X2720D02*
X2713Y1788D01*
X2706Y1785D01*
X2700Y1780D01*
X2695Y1774D01*
X2692Y1767D01*
X2691Y1760D01*
X2692Y1753D01*
X2695Y1746D01*
X2700Y1740D01*
X2706Y1735D01*
X2713Y1732D01*
X2720Y1731D01*
X2727Y1732D01*
X2734Y1735D01*
X2740Y1740D01*
X2745Y1746D01*
X2748Y1753D01*
X2749Y1760D01*
X2748Y1767D01*
X2745Y1774D01*
X2740Y1780D01*
X2734Y1785D01*
X2727Y1788D01*
X2720Y1789D01*
D02*
G37*
G36*
X1520Y2029D02*
X1513Y2028D01*
X1506Y2025D01*
X1500Y2020D01*
X1495Y2014D01*
X1492Y2007D01*
X1491Y2000D01*
X1492Y1993D01*
X1495Y1986D01*
X1500Y1980D01*
X1506Y1975D01*
X1513Y1972D01*
X1520Y1971D01*
X1527Y1972D01*
X1534Y1975D01*
X1540Y1980D01*
X1545Y1986D01*
X1548Y1993D01*
X1549Y2000D01*
X1548Y2007D01*
X1545Y2014D01*
X1540Y2020D01*
X1534Y2025D01*
X1527Y2028D01*
X1520Y2029D01*
D02*
G37*
G36*
X2960D02*
X2953Y2028D01*
X2946Y2025D01*
X2940Y2020D01*
X2935Y2014D01*
X2932Y2007D01*
X2931Y2000D01*
X2932Y1993D01*
X2935Y1986D01*
X2940Y1980D01*
X2946Y1975D01*
X2953Y1972D01*
X2960Y1971D01*
X2967Y1972D01*
X2974Y1975D01*
X2980Y1980D01*
X2985Y1986D01*
X2988Y1993D01*
X2989Y2000D01*
X2988Y2007D01*
X2985Y2014D01*
X2980Y2020D01*
X2974Y2025D01*
X2967Y2028D01*
X2960Y2029D01*
D02*
G37*
G36*
X2640Y1949D02*
X2633Y1948D01*
X2626Y1945D01*
X2620Y1940D01*
X2615Y1934D01*
X2612Y1927D01*
X2611Y1920D01*
X2612Y1913D01*
X2615Y1906D01*
X2620Y1900D01*
X2626Y1895D01*
X2633Y1892D01*
X2640Y1891D01*
X2647Y1892D01*
X2654Y1895D01*
X2660Y1900D01*
X2665Y1906D01*
X2668Y1913D01*
X2669Y1920D01*
X2668Y1927D01*
X2665Y1934D01*
X2660Y1940D01*
X2654Y1945D01*
X2647Y1948D01*
X2640Y1949D01*
D02*
G37*
G36*
X2480D02*
X2473Y1948D01*
X2466Y1945D01*
X2460Y1940D01*
X2455Y1934D01*
X2452Y1927D01*
X2451Y1920D01*
X2452Y1913D01*
X2455Y1906D01*
X2460Y1900D01*
X2466Y1895D01*
X2473Y1892D01*
X2480Y1891D01*
X2487Y1892D01*
X2494Y1895D01*
X2500Y1900D01*
X2505Y1906D01*
X2508Y1913D01*
X2509Y1920D01*
X2508Y1927D01*
X2505Y1934D01*
X2500Y1940D01*
X2494Y1945D01*
X2487Y1948D01*
X2480Y1949D01*
D02*
G37*
G36*
X2560D02*
X2553Y1948D01*
X2546Y1945D01*
X2540Y1940D01*
X2535Y1934D01*
X2532Y1927D01*
X2531Y1920D01*
X2532Y1913D01*
X2535Y1906D01*
X2540Y1900D01*
X2546Y1895D01*
X2553Y1892D01*
X2560Y1891D01*
X2567Y1892D01*
X2574Y1895D01*
X2580Y1900D01*
X2585Y1906D01*
X2588Y1913D01*
X2589Y1920D01*
X2588Y1927D01*
X2585Y1934D01*
X2580Y1940D01*
X2574Y1945D01*
X2567Y1948D01*
X2560Y1949D01*
D02*
G37*
G36*
X1840Y2109D02*
X1833Y2108D01*
X1826Y2105D01*
X1820Y2100D01*
X1815Y2094D01*
X1812Y2087D01*
X1811Y2080D01*
X1812Y2073D01*
X1815Y2066D01*
X1820Y2060D01*
X1826Y2055D01*
X1833Y2052D01*
X1840Y2051D01*
X1847Y2052D01*
X1854Y2055D01*
X1860Y2060D01*
X1865Y2066D01*
X1868Y2073D01*
X1869Y2080D01*
X1868Y2087D01*
X1865Y2094D01*
X1860Y2100D01*
X1854Y2105D01*
X1847Y2108D01*
X1840Y2109D01*
D02*
G37*
G36*
X2480Y2189D02*
X2473Y2188D01*
X2466Y2185D01*
X2460Y2180D01*
X2455Y2174D01*
X2452Y2167D01*
X2451Y2160D01*
X2452Y2153D01*
X2455Y2146D01*
X2460Y2140D01*
X2466Y2135D01*
X2473Y2132D01*
X2480Y2131D01*
X2487Y2132D01*
X2494Y2135D01*
X2500Y2140D01*
X2505Y2146D01*
X2508Y2153D01*
X2509Y2160D01*
X2508Y2167D01*
X2505Y2174D01*
X2500Y2180D01*
X2494Y2185D01*
X2487Y2188D01*
X2480Y2189D01*
D02*
G37*
G36*
X2560D02*
X2553Y2188D01*
X2546Y2185D01*
X2540Y2180D01*
X2535Y2174D01*
X2532Y2167D01*
X2531Y2160D01*
X2532Y2153D01*
X2535Y2146D01*
X2540Y2140D01*
X2546Y2135D01*
X2553Y2132D01*
X2560Y2131D01*
X2567Y2132D01*
X2574Y2135D01*
X2580Y2140D01*
X2585Y2146D01*
X2588Y2153D01*
X2589Y2160D01*
X2588Y2167D01*
X2585Y2174D01*
X2580Y2180D01*
X2574Y2185D01*
X2567Y2188D01*
X2560Y2189D01*
D02*
G37*
G36*
X1840D02*
X1833Y2188D01*
X1826Y2185D01*
X1820Y2180D01*
X1815Y2174D01*
X1812Y2167D01*
X1811Y2160D01*
X1812Y2153D01*
X1815Y2146D01*
X1820Y2140D01*
X1826Y2135D01*
X1833Y2132D01*
X1840Y2131D01*
X1847Y2132D01*
X1854Y2135D01*
X1860Y2140D01*
X1865Y2146D01*
X1868Y2153D01*
X1869Y2160D01*
X1868Y2167D01*
X1865Y2174D01*
X1860Y2180D01*
X1854Y2185D01*
X1847Y2188D01*
X1840Y2189D01*
D02*
G37*
G36*
X1920Y2109D02*
X1913Y2108D01*
X1906Y2105D01*
X1900Y2100D01*
X1895Y2094D01*
X1892Y2087D01*
X1891Y2080D01*
X1892Y2073D01*
X1895Y2066D01*
X1900Y2060D01*
X1906Y2055D01*
X1913Y2052D01*
X1920Y2051D01*
X1927Y2052D01*
X1934Y2055D01*
X1940Y2060D01*
X1945Y2066D01*
X1948Y2073D01*
X1949Y2080D01*
X1948Y2087D01*
X1945Y2094D01*
X1940Y2100D01*
X1934Y2105D01*
X1927Y2108D01*
X1920Y2109D01*
D02*
G37*
G36*
X2234Y2057D02*
X2228Y2056D01*
X2224Y2053D01*
X2221Y2056D01*
X2214Y2057D01*
X2208Y2056D01*
X2204Y2053D01*
X2201Y2056D01*
X2194Y2057D01*
X2188Y2056D01*
X2182Y2052D01*
X2178Y2046D01*
X2177Y2040D01*
X2178Y2033D01*
X2181Y2030D01*
X2178Y2026D01*
X2177Y2020D01*
X2178Y2013D01*
X2181Y2010D01*
X2178Y2006D01*
X2177Y2000D01*
X2178Y1993D01*
X2182Y1988D01*
X2188Y1984D01*
X2194Y1982D01*
X2201Y1984D01*
X2204Y1986D01*
X2208Y1984D01*
X2214Y1982D01*
X2221Y1984D01*
X2224Y1986D01*
X2228Y1984D01*
X2234Y1982D01*
X2241Y1984D01*
X2246Y1988D01*
X2250Y1993D01*
X2251Y2000D01*
X2250Y2006D01*
X2248Y2010D01*
X2250Y2013D01*
X2251Y2020D01*
X2250Y2026D01*
X2248Y2030D01*
X2250Y2033D01*
X2251Y2040D01*
X2250Y2046D01*
X2246Y2052D01*
X2241Y2056D01*
X2234Y2057D01*
D02*
G37*
G36*
X2400Y1949D02*
X2393Y1948D01*
X2386Y1945D01*
X2380Y1940D01*
X2375Y1934D01*
X2372Y1927D01*
X2371Y1920D01*
X2372Y1913D01*
X2375Y1906D01*
X2380Y1900D01*
X2386Y1895D01*
X2393Y1892D01*
X2400Y1891D01*
X2407Y1892D01*
X2414Y1895D01*
X2420Y1900D01*
X2425Y1906D01*
X2428Y1913D01*
X2429Y1920D01*
X2428Y1927D01*
X2425Y1934D01*
X2420Y1940D01*
X2414Y1945D01*
X2407Y1948D01*
X2400Y1949D01*
D02*
G37*
G36*
X2720Y1869D02*
X2713Y1868D01*
X2706Y1865D01*
X2700Y1860D01*
X2695Y1854D01*
X2692Y1847D01*
X2691Y1840D01*
X2692Y1833D01*
X2695Y1826D01*
X2700Y1820D01*
X2706Y1815D01*
X2713Y1812D01*
X2720Y1811D01*
X2727Y1812D01*
X2734Y1815D01*
X2740Y1820D01*
X2745Y1826D01*
X2748Y1833D01*
X2749Y1840D01*
X2748Y1847D01*
X2745Y1854D01*
X2740Y1860D01*
X2734Y1865D01*
X2727Y1868D01*
X2720Y1869D01*
D02*
G37*
G36*
X2800D02*
X2793Y1868D01*
X2786Y1865D01*
X2780Y1860D01*
X2775Y1854D01*
X2772Y1847D01*
X2771Y1840D01*
X2772Y1833D01*
X2775Y1826D01*
X2780Y1820D01*
X2786Y1815D01*
X2793Y1812D01*
X2800Y1811D01*
X2807Y1812D01*
X2814Y1815D01*
X2820Y1820D01*
X2825Y1826D01*
X2828Y1833D01*
X2829Y1840D01*
X2828Y1847D01*
X2825Y1854D01*
X2820Y1860D01*
X2814Y1865D01*
X2807Y1868D01*
X2800Y1869D01*
D02*
G37*
G36*
X2640D02*
X2633Y1868D01*
X2626Y1865D01*
X2620Y1860D01*
X2615Y1854D01*
X2612Y1847D01*
X2611Y1840D01*
X2612Y1833D01*
X2615Y1826D01*
X2620Y1820D01*
X2626Y1815D01*
X2633Y1812D01*
X2640Y1811D01*
X2647Y1812D01*
X2654Y1815D01*
X2660Y1820D01*
X2665Y1826D01*
X2668Y1833D01*
X2669Y1840D01*
X2668Y1847D01*
X2665Y1854D01*
X2660Y1860D01*
X2654Y1865D01*
X2647Y1868D01*
X2640Y1869D01*
D02*
G37*
G36*
X2480D02*
X2473Y1868D01*
X2466Y1865D01*
X2460Y1860D01*
X2455Y1854D01*
X2452Y1847D01*
X2451Y1840D01*
X2452Y1833D01*
X2455Y1826D01*
X2460Y1820D01*
X2466Y1815D01*
X2473Y1812D01*
X2480Y1811D01*
X2487Y1812D01*
X2494Y1815D01*
X2500Y1820D01*
X2505Y1826D01*
X2508Y1833D01*
X2509Y1840D01*
X2508Y1847D01*
X2505Y1854D01*
X2500Y1860D01*
X2494Y1865D01*
X2487Y1868D01*
X2480Y1869D01*
D02*
G37*
G36*
X2560D02*
X2553Y1868D01*
X2546Y1865D01*
X2540Y1860D01*
X2535Y1854D01*
X2532Y1847D01*
X2531Y1840D01*
X2532Y1833D01*
X2535Y1826D01*
X2540Y1820D01*
X2546Y1815D01*
X2553Y1812D01*
X2560Y1811D01*
X2567Y1812D01*
X2574Y1815D01*
X2580Y1820D01*
X2585Y1826D01*
X2588Y1833D01*
X2589Y1840D01*
X2588Y1847D01*
X2585Y1854D01*
X2580Y1860D01*
X2574Y1865D01*
X2567Y1868D01*
X2560Y1869D01*
D02*
G37*
G36*
X2880D02*
X2873Y1868D01*
X2866Y1865D01*
X2860Y1860D01*
X2855Y1854D01*
X2852Y1847D01*
X2851Y1840D01*
X2852Y1833D01*
X2855Y1826D01*
X2860Y1820D01*
X2866Y1815D01*
X2873Y1812D01*
X2880Y1811D01*
X2887Y1812D01*
X2894Y1815D01*
X2900Y1820D01*
X2905Y1826D01*
X2908Y1833D01*
X2909Y1840D01*
X2908Y1847D01*
X2905Y1854D01*
X2900Y1860D01*
X2894Y1865D01*
X2887Y1868D01*
X2880Y1869D01*
D02*
G37*
G36*
X2080Y1949D02*
X2073Y1948D01*
X2066Y1945D01*
X2060Y1940D01*
X2055Y1934D01*
X2052Y1927D01*
X2051Y1920D01*
X2052Y1913D01*
X2055Y1906D01*
X2060Y1900D01*
X2066Y1895D01*
X2073Y1892D01*
X2080Y1891D01*
X2087Y1892D01*
X2094Y1895D01*
X2100Y1900D01*
X2105Y1906D01*
X2108Y1913D01*
X2109Y1920D01*
X2108Y1927D01*
X2105Y1934D01*
X2100Y1940D01*
X2094Y1945D01*
X2087Y1948D01*
X2080Y1949D01*
D02*
G37*
G36*
X2320D02*
X2313Y1948D01*
X2306Y1945D01*
X2300Y1940D01*
X2295Y1934D01*
X2292Y1927D01*
X2291Y1920D01*
X2292Y1913D01*
X2295Y1906D01*
X2300Y1900D01*
X2306Y1895D01*
X2313Y1892D01*
X2320Y1891D01*
X2327Y1892D01*
X2334Y1895D01*
X2340Y1900D01*
X2345Y1906D01*
X2348Y1913D01*
X2349Y1920D01*
X2348Y1927D01*
X2345Y1934D01*
X2340Y1940D01*
X2334Y1945D01*
X2327Y1948D01*
X2320Y1949D01*
D02*
G37*
G36*
X2000D02*
X1993Y1948D01*
X1986Y1945D01*
X1980Y1940D01*
X1975Y1934D01*
X1972Y1927D01*
X1971Y1920D01*
X1972Y1913D01*
X1975Y1906D01*
X1980Y1900D01*
X1986Y1895D01*
X1993Y1892D01*
X2000Y1891D01*
X2007Y1892D01*
X2014Y1895D01*
X2020Y1900D01*
X2025Y1906D01*
X2028Y1913D01*
X2029Y1920D01*
X2028Y1927D01*
X2025Y1934D01*
X2020Y1940D01*
X2014Y1945D01*
X2007Y1948D01*
X2000Y1949D01*
D02*
G37*
G36*
X2960Y1869D02*
X2953Y1868D01*
X2946Y1865D01*
X2940Y1860D01*
X2935Y1854D01*
X2932Y1847D01*
X2931Y1840D01*
X2932Y1833D01*
X2935Y1826D01*
X2940Y1820D01*
X2946Y1815D01*
X2953Y1812D01*
X2960Y1811D01*
X2967Y1812D01*
X2974Y1815D01*
X2980Y1820D01*
X2985Y1826D01*
X2988Y1833D01*
X2989Y1840D01*
X2988Y1847D01*
X2985Y1854D01*
X2980Y1860D01*
X2974Y1865D01*
X2967Y1868D01*
X2960Y1869D01*
D02*
G37*
G36*
X1840Y1949D02*
X1833Y1948D01*
X1826Y1945D01*
X1820Y1940D01*
X1815Y1934D01*
X1812Y1927D01*
X1811Y1920D01*
X1812Y1913D01*
X1815Y1906D01*
X1820Y1900D01*
X1826Y1895D01*
X1833Y1892D01*
X1840Y1891D01*
X1847Y1892D01*
X1854Y1895D01*
X1860Y1900D01*
X1865Y1906D01*
X1868Y1913D01*
X1869Y1920D01*
X1868Y1927D01*
X1865Y1934D01*
X1860Y1940D01*
X1854Y1945D01*
X1847Y1948D01*
X1840Y1949D01*
D02*
G37*
G36*
X2720Y1629D02*
X2713Y1628D01*
X2706Y1625D01*
X2700Y1620D01*
X2695Y1614D01*
X2692Y1607D01*
X2691Y1600D01*
X2692Y1593D01*
X2695Y1586D01*
X2700Y1580D01*
X2706Y1575D01*
X2713Y1572D01*
X2720Y1571D01*
X2727Y1572D01*
X2734Y1575D01*
X2740Y1580D01*
X2745Y1586D01*
X2748Y1593D01*
X2749Y1600D01*
X2748Y1607D01*
X2745Y1614D01*
X2740Y1620D01*
X2734Y1625D01*
X2727Y1628D01*
X2720Y1629D01*
D02*
G37*
G36*
X2800D02*
X2793Y1628D01*
X2786Y1625D01*
X2780Y1620D01*
X2775Y1614D01*
X2772Y1607D01*
X2771Y1600D01*
X2772Y1593D01*
X2775Y1586D01*
X2780Y1580D01*
X2786Y1575D01*
X2793Y1572D01*
X2800Y1571D01*
X2807Y1572D01*
X2814Y1575D01*
X2820Y1580D01*
X2825Y1586D01*
X2828Y1593D01*
X2829Y1600D01*
X2828Y1607D01*
X2825Y1614D01*
X2820Y1620D01*
X2814Y1625D01*
X2807Y1628D01*
X2800Y1629D01*
D02*
G37*
G36*
X2640D02*
X2633Y1628D01*
X2626Y1625D01*
X2620Y1620D01*
X2615Y1614D01*
X2612Y1607D01*
X2611Y1600D01*
X2612Y1593D01*
X2615Y1586D01*
X2620Y1580D01*
X2626Y1575D01*
X2633Y1572D01*
X2640Y1571D01*
X2647Y1572D01*
X2654Y1575D01*
X2660Y1580D01*
X2665Y1586D01*
X2668Y1593D01*
X2669Y1600D01*
X2668Y1607D01*
X2665Y1614D01*
X2660Y1620D01*
X2654Y1625D01*
X2647Y1628D01*
X2640Y1629D01*
D02*
G37*
G36*
X2480D02*
X2473Y1628D01*
X2466Y1625D01*
X2460Y1620D01*
X2455Y1614D01*
X2452Y1607D01*
X2451Y1600D01*
X2452Y1593D01*
X2455Y1586D01*
X2460Y1580D01*
X2466Y1575D01*
X2473Y1572D01*
X2480Y1571D01*
X2487Y1572D01*
X2494Y1575D01*
X2500Y1580D01*
X2505Y1586D01*
X2508Y1593D01*
X2509Y1600D01*
X2508Y1607D01*
X2505Y1614D01*
X2500Y1620D01*
X2494Y1625D01*
X2487Y1628D01*
X2480Y1629D01*
D02*
G37*
G36*
X2560D02*
X2553Y1628D01*
X2546Y1625D01*
X2540Y1620D01*
X2535Y1614D01*
X2532Y1607D01*
X2531Y1600D01*
X2532Y1593D01*
X2535Y1586D01*
X2540Y1580D01*
X2546Y1575D01*
X2553Y1572D01*
X2560Y1571D01*
X2567Y1572D01*
X2574Y1575D01*
X2580Y1580D01*
X2585Y1586D01*
X2588Y1593D01*
X2589Y1600D01*
X2588Y1607D01*
X2585Y1614D01*
X2580Y1620D01*
X2574Y1625D01*
X2567Y1628D01*
X2560Y1629D01*
D02*
G37*
G36*
X2880D02*
X2873Y1628D01*
X2866Y1625D01*
X2860Y1620D01*
X2855Y1614D01*
X2852Y1607D01*
X2851Y1600D01*
X2852Y1593D01*
X2855Y1586D01*
X2860Y1580D01*
X2866Y1575D01*
X2873Y1572D01*
X2880Y1571D01*
X2887Y1572D01*
X2894Y1575D01*
X2900Y1580D01*
X2905Y1586D01*
X2908Y1593D01*
X2909Y1600D01*
X2908Y1607D01*
X2905Y1614D01*
X2900Y1620D01*
X2894Y1625D01*
X2887Y1628D01*
X2880Y1629D01*
D02*
G37*
G36*
X1680Y1709D02*
X1673Y1708D01*
X1666Y1705D01*
X1660Y1700D01*
X1655Y1694D01*
X1652Y1687D01*
X1651Y1680D01*
X1652Y1673D01*
X1655Y1666D01*
X1660Y1660D01*
X1666Y1655D01*
X1673Y1652D01*
X1680Y1651D01*
X1687Y1652D01*
X1694Y1655D01*
X1700Y1660D01*
X1705Y1666D01*
X1708Y1673D01*
X1709Y1680D01*
X1708Y1687D01*
X1705Y1694D01*
X1700Y1700D01*
X1694Y1705D01*
X1687Y1708D01*
X1680Y1709D01*
D02*
G37*
G36*
X1760D02*
X1753Y1708D01*
X1746Y1705D01*
X1740Y1700D01*
X1735Y1694D01*
X1732Y1687D01*
X1731Y1680D01*
X1732Y1673D01*
X1735Y1666D01*
X1740Y1660D01*
X1746Y1655D01*
X1753Y1652D01*
X1760Y1651D01*
X1767Y1652D01*
X1774Y1655D01*
X1780Y1660D01*
X1785Y1666D01*
X1788Y1673D01*
X1789Y1680D01*
X1788Y1687D01*
X1785Y1694D01*
X1780Y1700D01*
X1774Y1705D01*
X1767Y1708D01*
X1760Y1709D01*
D02*
G37*
G36*
X1600D02*
X1593Y1708D01*
X1586Y1705D01*
X1580Y1700D01*
X1575Y1694D01*
X1572Y1687D01*
X1571Y1680D01*
X1572Y1673D01*
X1575Y1666D01*
X1580Y1660D01*
X1586Y1655D01*
X1593Y1652D01*
X1600Y1651D01*
X1607Y1652D01*
X1614Y1655D01*
X1620Y1660D01*
X1625Y1666D01*
X1628Y1673D01*
X1629Y1680D01*
X1628Y1687D01*
X1625Y1694D01*
X1620Y1700D01*
X1614Y1705D01*
X1607Y1708D01*
X1600Y1709D01*
D02*
G37*
G36*
X2960Y1629D02*
X2953Y1628D01*
X2946Y1625D01*
X2940Y1620D01*
X2935Y1614D01*
X2932Y1607D01*
X2931Y1600D01*
X2932Y1593D01*
X2935Y1586D01*
X2940Y1580D01*
X2946Y1575D01*
X2953Y1572D01*
X2960Y1571D01*
X2967Y1572D01*
X2974Y1575D01*
X2980Y1580D01*
X2985Y1586D01*
X2988Y1593D01*
X2989Y1600D01*
X2988Y1607D01*
X2985Y1614D01*
X2980Y1620D01*
X2974Y1625D01*
X2967Y1628D01*
X2960Y1629D01*
D02*
G37*
G36*
X1520Y1709D02*
X1513Y1708D01*
X1506Y1705D01*
X1500Y1700D01*
X1495Y1694D01*
X1492Y1687D01*
X1491Y1680D01*
X1492Y1673D01*
X1495Y1666D01*
X1500Y1660D01*
X1506Y1655D01*
X1513Y1652D01*
X1520Y1651D01*
X1527Y1652D01*
X1534Y1655D01*
X1540Y1660D01*
X1545Y1666D01*
X1548Y1673D01*
X1549Y1680D01*
X1548Y1687D01*
X1545Y1694D01*
X1540Y1700D01*
X1534Y1705D01*
X1527Y1708D01*
X1520Y1709D01*
D02*
G37*
G36*
X2400Y1629D02*
X2393Y1628D01*
X2386Y1625D01*
X2380Y1620D01*
X2375Y1614D01*
X2372Y1607D01*
X2371Y1600D01*
X2372Y1593D01*
X2375Y1586D01*
X2380Y1580D01*
X2386Y1575D01*
X2393Y1572D01*
X2400Y1571D01*
X2407Y1572D01*
X2414Y1575D01*
X2420Y1580D01*
X2425Y1586D01*
X2428Y1593D01*
X2429Y1600D01*
X2428Y1607D01*
X2425Y1614D01*
X2420Y1620D01*
X2414Y1625D01*
X2407Y1628D01*
X2400Y1629D01*
D02*
G37*
G36*
X1760D02*
X1753Y1628D01*
X1746Y1625D01*
X1740Y1620D01*
X1735Y1614D01*
X1732Y1607D01*
X1731Y1600D01*
X1732Y1593D01*
X1735Y1586D01*
X1740Y1580D01*
X1746Y1575D01*
X1753Y1572D01*
X1760Y1571D01*
X1767Y1572D01*
X1774Y1575D01*
X1780Y1580D01*
X1785Y1586D01*
X1788Y1593D01*
X1789Y1600D01*
X1788Y1607D01*
X1785Y1614D01*
X1780Y1620D01*
X1774Y1625D01*
X1767Y1628D01*
X1760Y1629D01*
D02*
G37*
G36*
X1840D02*
X1833Y1628D01*
X1826Y1625D01*
X1820Y1620D01*
X1815Y1614D01*
X1812Y1607D01*
X1811Y1600D01*
X1812Y1593D01*
X1815Y1586D01*
X1820Y1580D01*
X1826Y1575D01*
X1833Y1572D01*
X1840Y1571D01*
X1847Y1572D01*
X1854Y1575D01*
X1860Y1580D01*
X1865Y1586D01*
X1868Y1593D01*
X1869Y1600D01*
X1868Y1607D01*
X1865Y1614D01*
X1860Y1620D01*
X1854Y1625D01*
X1847Y1628D01*
X1840Y1629D01*
D02*
G37*
G36*
X1680D02*
X1673Y1628D01*
X1666Y1625D01*
X1660Y1620D01*
X1655Y1614D01*
X1652Y1607D01*
X1651Y1600D01*
X1652Y1593D01*
X1655Y1586D01*
X1660Y1580D01*
X1666Y1575D01*
X1673Y1572D01*
X1680Y1571D01*
X1687Y1572D01*
X1694Y1575D01*
X1700Y1580D01*
X1705Y1586D01*
X1708Y1593D01*
X1709Y1600D01*
X1708Y1607D01*
X1705Y1614D01*
X1700Y1620D01*
X1694Y1625D01*
X1687Y1628D01*
X1680Y1629D01*
D02*
G37*
G36*
X1520D02*
X1513Y1628D01*
X1506Y1625D01*
X1500Y1620D01*
X1495Y1614D01*
X1492Y1607D01*
X1491Y1600D01*
X1492Y1593D01*
X1495Y1586D01*
X1500Y1580D01*
X1506Y1575D01*
X1513Y1572D01*
X1520Y1571D01*
X1527Y1572D01*
X1534Y1575D01*
X1540Y1580D01*
X1545Y1586D01*
X1548Y1593D01*
X1549Y1600D01*
X1548Y1607D01*
X1545Y1614D01*
X1540Y1620D01*
X1534Y1625D01*
X1527Y1628D01*
X1520Y1629D01*
D02*
G37*
G36*
X1600D02*
X1593Y1628D01*
X1586Y1625D01*
X1580Y1620D01*
X1575Y1614D01*
X1572Y1607D01*
X1571Y1600D01*
X1572Y1593D01*
X1575Y1586D01*
X1580Y1580D01*
X1586Y1575D01*
X1593Y1572D01*
X1600Y1571D01*
X1607Y1572D01*
X1614Y1575D01*
X1620Y1580D01*
X1625Y1586D01*
X1628Y1593D01*
X1629Y1600D01*
X1628Y1607D01*
X1625Y1614D01*
X1620Y1620D01*
X1614Y1625D01*
X1607Y1628D01*
X1600Y1629D01*
D02*
G37*
G36*
X1920D02*
X1913Y1628D01*
X1906Y1625D01*
X1900Y1620D01*
X1895Y1614D01*
X1892Y1607D01*
X1891Y1600D01*
X1892Y1593D01*
X1895Y1586D01*
X1900Y1580D01*
X1906Y1575D01*
X1913Y1572D01*
X1920Y1571D01*
X1927Y1572D01*
X1934Y1575D01*
X1940Y1580D01*
X1945Y1586D01*
X1948Y1593D01*
X1949Y1600D01*
X1948Y1607D01*
X1945Y1614D01*
X1940Y1620D01*
X1934Y1625D01*
X1927Y1628D01*
X1920Y1629D01*
D02*
G37*
G36*
X2240D02*
X2233Y1628D01*
X2226Y1625D01*
X2220Y1620D01*
X2215Y1614D01*
X2212Y1607D01*
X2211Y1600D01*
X2212Y1593D01*
X2215Y1586D01*
X2220Y1580D01*
X2226Y1575D01*
X2233Y1572D01*
X2240Y1571D01*
X2247Y1572D01*
X2254Y1575D01*
X2260Y1580D01*
X2265Y1586D01*
X2268Y1593D01*
X2269Y1600D01*
X2268Y1607D01*
X2265Y1614D01*
X2260Y1620D01*
X2254Y1625D01*
X2247Y1628D01*
X2240Y1629D01*
D02*
G37*
G36*
X2320D02*
X2313Y1628D01*
X2306Y1625D01*
X2300Y1620D01*
X2295Y1614D01*
X2292Y1607D01*
X2291Y1600D01*
X2292Y1593D01*
X2295Y1586D01*
X2300Y1580D01*
X2306Y1575D01*
X2313Y1572D01*
X2320Y1571D01*
X2327Y1572D01*
X2334Y1575D01*
X2340Y1580D01*
X2345Y1586D01*
X2348Y1593D01*
X2349Y1600D01*
X2348Y1607D01*
X2345Y1614D01*
X2340Y1620D01*
X2334Y1625D01*
X2327Y1628D01*
X2320Y1629D01*
D02*
G37*
G36*
X2160D02*
X2153Y1628D01*
X2146Y1625D01*
X2140Y1620D01*
X2135Y1614D01*
X2132Y1607D01*
X2131Y1600D01*
X2132Y1593D01*
X2135Y1586D01*
X2140Y1580D01*
X2146Y1575D01*
X2153Y1572D01*
X2160Y1571D01*
X2167Y1572D01*
X2174Y1575D01*
X2180Y1580D01*
X2185Y1586D01*
X2188Y1593D01*
X2189Y1600D01*
X2188Y1607D01*
X2185Y1614D01*
X2180Y1620D01*
X2174Y1625D01*
X2167Y1628D01*
X2160Y1629D01*
D02*
G37*
G36*
X2000D02*
X1993Y1628D01*
X1986Y1625D01*
X1980Y1620D01*
X1975Y1614D01*
X1972Y1607D01*
X1971Y1600D01*
X1972Y1593D01*
X1975Y1586D01*
X1980Y1580D01*
X1986Y1575D01*
X1993Y1572D01*
X2000Y1571D01*
X2007Y1572D01*
X2014Y1575D01*
X2020Y1580D01*
X2025Y1586D01*
X2028Y1593D01*
X2029Y1600D01*
X2028Y1607D01*
X2025Y1614D01*
X2020Y1620D01*
X2014Y1625D01*
X2007Y1628D01*
X2000Y1629D01*
D02*
G37*
G36*
X2080D02*
X2073Y1628D01*
X2066Y1625D01*
X2060Y1620D01*
X2055Y1614D01*
X2052Y1607D01*
X2051Y1600D01*
X2052Y1593D01*
X2055Y1586D01*
X2060Y1580D01*
X2066Y1575D01*
X2073Y1572D01*
X2080Y1571D01*
X2087Y1572D01*
X2094Y1575D01*
X2100Y1580D01*
X2105Y1586D01*
X2108Y1593D01*
X2109Y1600D01*
X2108Y1607D01*
X2105Y1614D01*
X2100Y1620D01*
X2094Y1625D01*
X2087Y1628D01*
X2080Y1629D01*
D02*
G37*
G36*
X1520Y1789D02*
X1513Y1788D01*
X1506Y1785D01*
X1500Y1780D01*
X1495Y1774D01*
X1492Y1767D01*
X1491Y1760D01*
X1492Y1753D01*
X1495Y1746D01*
X1500Y1740D01*
X1506Y1735D01*
X1513Y1732D01*
X1520Y1731D01*
X1527Y1732D01*
X1534Y1735D01*
X1540Y1740D01*
X1545Y1746D01*
X1548Y1753D01*
X1549Y1760D01*
X1548Y1767D01*
X1545Y1774D01*
X1540Y1780D01*
X1534Y1785D01*
X1527Y1788D01*
X1520Y1789D01*
D02*
G37*
G36*
X1600D02*
X1593Y1788D01*
X1586Y1785D01*
X1580Y1780D01*
X1575Y1774D01*
X1572Y1767D01*
X1571Y1760D01*
X1572Y1753D01*
X1575Y1746D01*
X1580Y1740D01*
X1586Y1735D01*
X1593Y1732D01*
X1600Y1731D01*
X1607Y1732D01*
X1614Y1735D01*
X1620Y1740D01*
X1625Y1746D01*
X1628Y1753D01*
X1629Y1760D01*
X1628Y1767D01*
X1625Y1774D01*
X1620Y1780D01*
X1614Y1785D01*
X1607Y1788D01*
X1600Y1789D01*
D02*
G37*
G36*
X2960Y1709D02*
X2953Y1708D01*
X2946Y1705D01*
X2940Y1700D01*
X2935Y1694D01*
X2932Y1687D01*
X2931Y1680D01*
X2932Y1673D01*
X2935Y1666D01*
X2940Y1660D01*
X2946Y1655D01*
X2953Y1652D01*
X2960Y1651D01*
X2967Y1652D01*
X2974Y1655D01*
X2980Y1660D01*
X2985Y1666D01*
X2988Y1673D01*
X2989Y1680D01*
X2988Y1687D01*
X2985Y1694D01*
X2980Y1700D01*
X2974Y1705D01*
X2967Y1708D01*
X2960Y1709D01*
D02*
G37*
G36*
X2800D02*
X2793Y1708D01*
X2786Y1705D01*
X2780Y1700D01*
X2775Y1694D01*
X2772Y1687D01*
X2771Y1680D01*
X2772Y1673D01*
X2775Y1666D01*
X2780Y1660D01*
X2786Y1655D01*
X2793Y1652D01*
X2800Y1651D01*
X2807Y1652D01*
X2814Y1655D01*
X2820Y1660D01*
X2825Y1666D01*
X2828Y1673D01*
X2829Y1680D01*
X2828Y1687D01*
X2825Y1694D01*
X2820Y1700D01*
X2814Y1705D01*
X2807Y1708D01*
X2800Y1709D01*
D02*
G37*
G36*
X2880D02*
X2873Y1708D01*
X2866Y1705D01*
X2860Y1700D01*
X2855Y1694D01*
X2852Y1687D01*
X2851Y1680D01*
X2852Y1673D01*
X2855Y1666D01*
X2860Y1660D01*
X2866Y1655D01*
X2873Y1652D01*
X2880Y1651D01*
X2887Y1652D01*
X2894Y1655D01*
X2900Y1660D01*
X2905Y1666D01*
X2908Y1673D01*
X2909Y1680D01*
X2908Y1687D01*
X2905Y1694D01*
X2900Y1700D01*
X2894Y1705D01*
X2887Y1708D01*
X2880Y1709D01*
D02*
G37*
G36*
X1680Y1789D02*
X1673Y1788D01*
X1666Y1785D01*
X1660Y1780D01*
X1655Y1774D01*
X1652Y1767D01*
X1651Y1760D01*
X1652Y1753D01*
X1655Y1746D01*
X1660Y1740D01*
X1666Y1735D01*
X1673Y1732D01*
X1680Y1731D01*
X1687Y1732D01*
X1694Y1735D01*
X1700Y1740D01*
X1705Y1746D01*
X1708Y1753D01*
X1709Y1760D01*
X1708Y1767D01*
X1705Y1774D01*
X1700Y1780D01*
X1694Y1785D01*
X1687Y1788D01*
X1680Y1789D01*
D02*
G37*
G36*
X2000D02*
X1993Y1788D01*
X1986Y1785D01*
X1980Y1780D01*
X1975Y1774D01*
X1972Y1767D01*
X1971Y1760D01*
X1972Y1753D01*
X1975Y1746D01*
X1980Y1740D01*
X1986Y1735D01*
X1993Y1732D01*
X2000Y1731D01*
X2007Y1732D01*
X2014Y1735D01*
X2020Y1740D01*
X2025Y1746D01*
X2028Y1753D01*
X2029Y1760D01*
X2028Y1767D01*
X2025Y1774D01*
X2020Y1780D01*
X2014Y1785D01*
X2007Y1788D01*
X2000Y1789D01*
D02*
G37*
G36*
X2080D02*
X2073Y1788D01*
X2066Y1785D01*
X2060Y1780D01*
X2055Y1774D01*
X2052Y1767D01*
X2051Y1760D01*
X2052Y1753D01*
X2055Y1746D01*
X2060Y1740D01*
X2066Y1735D01*
X2073Y1732D01*
X2080Y1731D01*
X2087Y1732D01*
X2094Y1735D01*
X2100Y1740D01*
X2105Y1746D01*
X2108Y1753D01*
X2109Y1760D01*
X2108Y1767D01*
X2105Y1774D01*
X2100Y1780D01*
X2094Y1785D01*
X2087Y1788D01*
X2080Y1789D01*
D02*
G37*
G36*
X1920D02*
X1913Y1788D01*
X1906Y1785D01*
X1900Y1780D01*
X1895Y1774D01*
X1892Y1767D01*
X1891Y1760D01*
X1892Y1753D01*
X1895Y1746D01*
X1900Y1740D01*
X1906Y1735D01*
X1913Y1732D01*
X1920Y1731D01*
X1927Y1732D01*
X1934Y1735D01*
X1940Y1740D01*
X1945Y1746D01*
X1948Y1753D01*
X1949Y1760D01*
X1948Y1767D01*
X1945Y1774D01*
X1940Y1780D01*
X1934Y1785D01*
X1927Y1788D01*
X1920Y1789D01*
D02*
G37*
G36*
X1760D02*
X1753Y1788D01*
X1746Y1785D01*
X1740Y1780D01*
X1735Y1774D01*
X1732Y1767D01*
X1731Y1760D01*
X1732Y1753D01*
X1735Y1746D01*
X1740Y1740D01*
X1746Y1735D01*
X1753Y1732D01*
X1760Y1731D01*
X1767Y1732D01*
X1774Y1735D01*
X1780Y1740D01*
X1785Y1746D01*
X1788Y1753D01*
X1789Y1760D01*
X1788Y1767D01*
X1785Y1774D01*
X1780Y1780D01*
X1774Y1785D01*
X1767Y1788D01*
X1760Y1789D01*
D02*
G37*
G36*
X1840D02*
X1833Y1788D01*
X1826Y1785D01*
X1820Y1780D01*
X1815Y1774D01*
X1812Y1767D01*
X1811Y1760D01*
X1812Y1753D01*
X1815Y1746D01*
X1820Y1740D01*
X1826Y1735D01*
X1833Y1732D01*
X1840Y1731D01*
X1847Y1732D01*
X1854Y1735D01*
X1860Y1740D01*
X1865Y1746D01*
X1868Y1753D01*
X1869Y1760D01*
X1868Y1767D01*
X1865Y1774D01*
X1860Y1780D01*
X1854Y1785D01*
X1847Y1788D01*
X1840Y1789D01*
D02*
G37*
G36*
X2720Y1709D02*
X2713Y1708D01*
X2706Y1705D01*
X2700Y1700D01*
X2695Y1694D01*
X2692Y1687D01*
X2691Y1680D01*
X2692Y1673D01*
X2695Y1666D01*
X2700Y1660D01*
X2706Y1655D01*
X2713Y1652D01*
X2720Y1651D01*
X2727Y1652D01*
X2734Y1655D01*
X2740Y1660D01*
X2745Y1666D01*
X2748Y1673D01*
X2749Y1680D01*
X2748Y1687D01*
X2745Y1694D01*
X2740Y1700D01*
X2734Y1705D01*
X2727Y1708D01*
X2720Y1709D01*
D02*
G37*
G36*
X2080D02*
X2073Y1708D01*
X2066Y1705D01*
X2060Y1700D01*
X2055Y1694D01*
X2052Y1687D01*
X2051Y1680D01*
X2052Y1673D01*
X2055Y1666D01*
X2060Y1660D01*
X2066Y1655D01*
X2073Y1652D01*
X2080Y1651D01*
X2087Y1652D01*
X2094Y1655D01*
X2100Y1660D01*
X2105Y1666D01*
X2108Y1673D01*
X2109Y1680D01*
X2108Y1687D01*
X2105Y1694D01*
X2100Y1700D01*
X2094Y1705D01*
X2087Y1708D01*
X2080Y1709D01*
D02*
G37*
G36*
X2160D02*
X2153Y1708D01*
X2146Y1705D01*
X2140Y1700D01*
X2135Y1694D01*
X2132Y1687D01*
X2131Y1680D01*
X2132Y1673D01*
X2135Y1666D01*
X2140Y1660D01*
X2146Y1655D01*
X2153Y1652D01*
X2160Y1651D01*
X2167Y1652D01*
X2174Y1655D01*
X2180Y1660D01*
X2185Y1666D01*
X2188Y1673D01*
X2189Y1680D01*
X2188Y1687D01*
X2185Y1694D01*
X2180Y1700D01*
X2174Y1705D01*
X2167Y1708D01*
X2160Y1709D01*
D02*
G37*
G36*
X2000D02*
X1993Y1708D01*
X1986Y1705D01*
X1980Y1700D01*
X1975Y1694D01*
X1972Y1687D01*
X1971Y1680D01*
X1972Y1673D01*
X1975Y1666D01*
X1980Y1660D01*
X1986Y1655D01*
X1993Y1652D01*
X2000Y1651D01*
X2007Y1652D01*
X2014Y1655D01*
X2020Y1660D01*
X2025Y1666D01*
X2028Y1673D01*
X2029Y1680D01*
X2028Y1687D01*
X2025Y1694D01*
X2020Y1700D01*
X2014Y1705D01*
X2007Y1708D01*
X2000Y1709D01*
D02*
G37*
G36*
X1840D02*
X1833Y1708D01*
X1826Y1705D01*
X1820Y1700D01*
X1815Y1694D01*
X1812Y1687D01*
X1811Y1680D01*
X1812Y1673D01*
X1815Y1666D01*
X1820Y1660D01*
X1826Y1655D01*
X1833Y1652D01*
X1840Y1651D01*
X1847Y1652D01*
X1854Y1655D01*
X1860Y1660D01*
X1865Y1666D01*
X1868Y1673D01*
X1869Y1680D01*
X1868Y1687D01*
X1865Y1694D01*
X1860Y1700D01*
X1854Y1705D01*
X1847Y1708D01*
X1840Y1709D01*
D02*
G37*
G36*
X1920D02*
X1913Y1708D01*
X1906Y1705D01*
X1900Y1700D01*
X1895Y1694D01*
X1892Y1687D01*
X1891Y1680D01*
X1892Y1673D01*
X1895Y1666D01*
X1900Y1660D01*
X1906Y1655D01*
X1913Y1652D01*
X1920Y1651D01*
X1927Y1652D01*
X1934Y1655D01*
X1940Y1660D01*
X1945Y1666D01*
X1948Y1673D01*
X1949Y1680D01*
X1948Y1687D01*
X1945Y1694D01*
X1940Y1700D01*
X1934Y1705D01*
X1927Y1708D01*
X1920Y1709D01*
D02*
G37*
G36*
X2240D02*
X2233Y1708D01*
X2226Y1705D01*
X2220Y1700D01*
X2215Y1694D01*
X2212Y1687D01*
X2211Y1680D01*
X2212Y1673D01*
X2215Y1666D01*
X2220Y1660D01*
X2226Y1655D01*
X2233Y1652D01*
X2240Y1651D01*
X2247Y1652D01*
X2254Y1655D01*
X2260Y1660D01*
X2265Y1666D01*
X2268Y1673D01*
X2269Y1680D01*
X2268Y1687D01*
X2265Y1694D01*
X2260Y1700D01*
X2254Y1705D01*
X2247Y1708D01*
X2240Y1709D01*
D02*
G37*
G36*
X2560D02*
X2553Y1708D01*
X2546Y1705D01*
X2540Y1700D01*
X2535Y1694D01*
X2532Y1687D01*
X2531Y1680D01*
X2532Y1673D01*
X2535Y1666D01*
X2540Y1660D01*
X2546Y1655D01*
X2553Y1652D01*
X2560Y1651D01*
X2567Y1652D01*
X2574Y1655D01*
X2580Y1660D01*
X2585Y1666D01*
X2588Y1673D01*
X2589Y1680D01*
X2588Y1687D01*
X2585Y1694D01*
X2580Y1700D01*
X2574Y1705D01*
X2567Y1708D01*
X2560Y1709D01*
D02*
G37*
G36*
X2640D02*
X2633Y1708D01*
X2626Y1705D01*
X2620Y1700D01*
X2615Y1694D01*
X2612Y1687D01*
X2611Y1680D01*
X2612Y1673D01*
X2615Y1666D01*
X2620Y1660D01*
X2626Y1655D01*
X2633Y1652D01*
X2640Y1651D01*
X2647Y1652D01*
X2654Y1655D01*
X2660Y1660D01*
X2665Y1666D01*
X2668Y1673D01*
X2669Y1680D01*
X2668Y1687D01*
X2665Y1694D01*
X2660Y1700D01*
X2654Y1705D01*
X2647Y1708D01*
X2640Y1709D01*
D02*
G37*
G36*
X2480D02*
X2473Y1708D01*
X2466Y1705D01*
X2460Y1700D01*
X2455Y1694D01*
X2452Y1687D01*
X2451Y1680D01*
X2452Y1673D01*
X2455Y1666D01*
X2460Y1660D01*
X2466Y1655D01*
X2473Y1652D01*
X2480Y1651D01*
X2487Y1652D01*
X2494Y1655D01*
X2500Y1660D01*
X2505Y1666D01*
X2508Y1673D01*
X2509Y1680D01*
X2508Y1687D01*
X2505Y1694D01*
X2500Y1700D01*
X2494Y1705D01*
X2487Y1708D01*
X2480Y1709D01*
D02*
G37*
G36*
X2320D02*
X2313Y1708D01*
X2306Y1705D01*
X2300Y1700D01*
X2295Y1694D01*
X2292Y1687D01*
X2291Y1680D01*
X2292Y1673D01*
X2295Y1666D01*
X2300Y1660D01*
X2306Y1655D01*
X2313Y1652D01*
X2320Y1651D01*
X2327Y1652D01*
X2334Y1655D01*
X2340Y1660D01*
X2345Y1666D01*
X2348Y1673D01*
X2349Y1680D01*
X2348Y1687D01*
X2345Y1694D01*
X2340Y1700D01*
X2334Y1705D01*
X2327Y1708D01*
X2320Y1709D01*
D02*
G37*
G36*
X2400D02*
X2393Y1708D01*
X2386Y1705D01*
X2380Y1700D01*
X2375Y1694D01*
X2372Y1687D01*
X2371Y1680D01*
X2372Y1673D01*
X2375Y1666D01*
X2380Y1660D01*
X2386Y1655D01*
X2393Y1652D01*
X2400Y1651D01*
X2407Y1652D01*
X2414Y1655D01*
X2420Y1660D01*
X2425Y1666D01*
X2428Y1673D01*
X2429Y1680D01*
X2428Y1687D01*
X2425Y1694D01*
X2420Y1700D01*
X2414Y1705D01*
X2407Y1708D01*
X2400Y1709D01*
D02*
G37*
G36*
X2640Y2189D02*
X2633Y2188D01*
X2626Y2185D01*
X2620Y2180D01*
X2615Y2174D01*
X2612Y2167D01*
X2611Y2160D01*
X2612Y2153D01*
X2615Y2146D01*
X2620Y2140D01*
X2626Y2135D01*
X2633Y2132D01*
X2640Y2131D01*
X2647Y2132D01*
X2654Y2135D01*
X2660Y2140D01*
X2665Y2146D01*
X2668Y2153D01*
X2669Y2160D01*
X2668Y2167D01*
X2665Y2174D01*
X2660Y2180D01*
X2654Y2185D01*
X2647Y2188D01*
X2640Y2189D01*
D02*
G37*
G36*
X2560Y2589D02*
X2553Y2588D01*
X2546Y2585D01*
X2540Y2580D01*
X2535Y2574D01*
X2532Y2567D01*
X2531Y2560D01*
X2532Y2553D01*
X2535Y2546D01*
X2540Y2540D01*
X2546Y2535D01*
X2553Y2532D01*
X2560Y2531D01*
X2567Y2532D01*
X2574Y2535D01*
X2580Y2540D01*
X2585Y2546D01*
X2588Y2553D01*
X2589Y2560D01*
X2588Y2567D01*
X2585Y2574D01*
X2580Y2580D01*
X2574Y2585D01*
X2567Y2588D01*
X2560Y2589D01*
D02*
G37*
G36*
X2640D02*
X2633Y2588D01*
X2626Y2585D01*
X2620Y2580D01*
X2615Y2574D01*
X2612Y2567D01*
X2611Y2560D01*
X2612Y2553D01*
X2615Y2546D01*
X2620Y2540D01*
X2626Y2535D01*
X2633Y2532D01*
X2640Y2531D01*
X2647Y2532D01*
X2654Y2535D01*
X2660Y2540D01*
X2665Y2546D01*
X2668Y2553D01*
X2669Y2560D01*
X2668Y2567D01*
X2665Y2574D01*
X2660Y2580D01*
X2654Y2585D01*
X2647Y2588D01*
X2640Y2589D01*
D02*
G37*
G36*
X2320D02*
X2313Y2588D01*
X2306Y2585D01*
X2300Y2580D01*
X2295Y2574D01*
X2292Y2567D01*
X2291Y2560D01*
X2292Y2553D01*
X2295Y2546D01*
X2300Y2540D01*
X2306Y2535D01*
X2313Y2532D01*
X2320Y2531D01*
X2327Y2532D01*
X2334Y2535D01*
X2340Y2540D01*
X2345Y2546D01*
X2348Y2553D01*
X2349Y2560D01*
X2348Y2567D01*
X2345Y2574D01*
X2340Y2580D01*
X2334Y2585D01*
X2327Y2588D01*
X2320Y2589D01*
D02*
G37*
G36*
X2080D02*
X2073Y2588D01*
X2066Y2585D01*
X2060Y2580D01*
X2055Y2574D01*
X2052Y2567D01*
X2051Y2560D01*
X2052Y2553D01*
X2055Y2546D01*
X2060Y2540D01*
X2066Y2535D01*
X2073Y2532D01*
X2080Y2531D01*
X2087Y2532D01*
X2094Y2535D01*
X2100Y2540D01*
X2105Y2546D01*
X2108Y2553D01*
X2109Y2560D01*
X2108Y2567D01*
X2105Y2574D01*
X2100Y2580D01*
X2094Y2585D01*
X2087Y2588D01*
X2080Y2589D01*
D02*
G37*
G36*
X2160D02*
X2153Y2588D01*
X2146Y2585D01*
X2140Y2580D01*
X2135Y2574D01*
X2132Y2567D01*
X2131Y2560D01*
X2132Y2553D01*
X2135Y2546D01*
X2140Y2540D01*
X2146Y2535D01*
X2153Y2532D01*
X2160Y2531D01*
X2167Y2532D01*
X2174Y2535D01*
X2180Y2540D01*
X2185Y2546D01*
X2188Y2553D01*
X2189Y2560D01*
X2188Y2567D01*
X2185Y2574D01*
X2180Y2580D01*
X2174Y2585D01*
X2167Y2588D01*
X2160Y2589D01*
D02*
G37*
G36*
X2720D02*
X2713Y2588D01*
X2706Y2585D01*
X2700Y2580D01*
X2695Y2574D01*
X2692Y2567D01*
X2691Y2560D01*
X2692Y2553D01*
X2695Y2546D01*
X2700Y2540D01*
X2706Y2535D01*
X2713Y2532D01*
X2720Y2531D01*
X2727Y2532D01*
X2734Y2535D01*
X2740Y2540D01*
X2745Y2546D01*
X2748Y2553D01*
X2749Y2560D01*
X2748Y2567D01*
X2745Y2574D01*
X2740Y2580D01*
X2734Y2585D01*
X2727Y2588D01*
X2720Y2589D01*
D02*
G37*
G36*
X1520Y2669D02*
X1513Y2668D01*
X1506Y2665D01*
X1500Y2660D01*
X1495Y2654D01*
X1492Y2647D01*
X1491Y2640D01*
X1492Y2633D01*
X1495Y2626D01*
X1500Y2620D01*
X1506Y2615D01*
X1513Y2612D01*
X1520Y2611D01*
X1527Y2612D01*
X1534Y2615D01*
X1540Y2620D01*
X1545Y2626D01*
X1548Y2633D01*
X1549Y2640D01*
X1548Y2647D01*
X1545Y2654D01*
X1540Y2660D01*
X1534Y2665D01*
X1527Y2668D01*
X1520Y2669D01*
D02*
G37*
G36*
X1600D02*
X1593Y2668D01*
X1586Y2665D01*
X1580Y2660D01*
X1575Y2654D01*
X1572Y2647D01*
X1571Y2640D01*
X1572Y2633D01*
X1575Y2626D01*
X1580Y2620D01*
X1586Y2615D01*
X1593Y2612D01*
X1600Y2611D01*
X1607Y2612D01*
X1614Y2615D01*
X1620Y2620D01*
X1625Y2626D01*
X1628Y2633D01*
X1629Y2640D01*
X1628Y2647D01*
X1625Y2654D01*
X1620Y2660D01*
X1614Y2665D01*
X1607Y2668D01*
X1600Y2669D01*
D02*
G37*
G36*
X2960Y2589D02*
X2953Y2588D01*
X2946Y2585D01*
X2940Y2580D01*
X2935Y2574D01*
X2932Y2567D01*
X2931Y2560D01*
X2932Y2553D01*
X2935Y2546D01*
X2940Y2540D01*
X2946Y2535D01*
X2953Y2532D01*
X2960Y2531D01*
X2967Y2532D01*
X2974Y2535D01*
X2980Y2540D01*
X2985Y2546D01*
X2988Y2553D01*
X2989Y2560D01*
X2988Y2567D01*
X2985Y2574D01*
X2980Y2580D01*
X2974Y2585D01*
X2967Y2588D01*
X2960Y2589D01*
D02*
G37*
G36*
X2800D02*
X2793Y2588D01*
X2786Y2585D01*
X2780Y2580D01*
X2775Y2574D01*
X2772Y2567D01*
X2771Y2560D01*
X2772Y2553D01*
X2775Y2546D01*
X2780Y2540D01*
X2786Y2535D01*
X2793Y2532D01*
X2800Y2531D01*
X2807Y2532D01*
X2814Y2535D01*
X2820Y2540D01*
X2825Y2546D01*
X2828Y2553D01*
X2829Y2560D01*
X2828Y2567D01*
X2825Y2574D01*
X2820Y2580D01*
X2814Y2585D01*
X2807Y2588D01*
X2800Y2589D01*
D02*
G37*
G36*
X2880D02*
X2873Y2588D01*
X2866Y2585D01*
X2860Y2580D01*
X2855Y2574D01*
X2852Y2567D01*
X2851Y2560D01*
X2852Y2553D01*
X2855Y2546D01*
X2860Y2540D01*
X2866Y2535D01*
X2873Y2532D01*
X2880Y2531D01*
X2887Y2532D01*
X2894Y2535D01*
X2900Y2540D01*
X2905Y2546D01*
X2908Y2553D01*
X2909Y2560D01*
X2908Y2567D01*
X2905Y2574D01*
X2900Y2580D01*
X2894Y2585D01*
X2887Y2588D01*
X2880Y2589D01*
D02*
G37*
G36*
X1840D02*
X1833Y2588D01*
X1826Y2585D01*
X1820Y2580D01*
X1815Y2574D01*
X1812Y2567D01*
X1811Y2560D01*
X1812Y2553D01*
X1815Y2546D01*
X1820Y2540D01*
X1826Y2535D01*
X1833Y2532D01*
X1840Y2531D01*
X1847Y2532D01*
X1854Y2535D01*
X1860Y2540D01*
X1865Y2546D01*
X1868Y2553D01*
X1869Y2560D01*
X1868Y2567D01*
X1865Y2574D01*
X1860Y2580D01*
X1854Y2585D01*
X1847Y2588D01*
X1840Y2589D01*
D02*
G37*
G36*
X2720Y2509D02*
X2713Y2508D01*
X2706Y2505D01*
X2700Y2500D01*
X2695Y2494D01*
X2692Y2487D01*
X2691Y2480D01*
X2692Y2473D01*
X2695Y2466D01*
X2700Y2460D01*
X2706Y2455D01*
X2713Y2452D01*
X2720Y2451D01*
X2727Y2452D01*
X2734Y2455D01*
X2740Y2460D01*
X2745Y2466D01*
X2748Y2473D01*
X2749Y2480D01*
X2748Y2487D01*
X2745Y2494D01*
X2740Y2500D01*
X2734Y2505D01*
X2727Y2508D01*
X2720Y2509D01*
D02*
G37*
G36*
X2800D02*
X2793Y2508D01*
X2786Y2505D01*
X2780Y2500D01*
X2775Y2494D01*
X2772Y2487D01*
X2771Y2480D01*
X2772Y2473D01*
X2775Y2466D01*
X2780Y2460D01*
X2786Y2455D01*
X2793Y2452D01*
X2800Y2451D01*
X2807Y2452D01*
X2814Y2455D01*
X2820Y2460D01*
X2825Y2466D01*
X2828Y2473D01*
X2829Y2480D01*
X2828Y2487D01*
X2825Y2494D01*
X2820Y2500D01*
X2814Y2505D01*
X2807Y2508D01*
X2800Y2509D01*
D02*
G37*
G36*
X2640D02*
X2633Y2508D01*
X2626Y2505D01*
X2620Y2500D01*
X2615Y2494D01*
X2612Y2487D01*
X2611Y2480D01*
X2612Y2473D01*
X2615Y2466D01*
X2620Y2460D01*
X2626Y2455D01*
X2633Y2452D01*
X2640Y2451D01*
X2647Y2452D01*
X2654Y2455D01*
X2660Y2460D01*
X2665Y2466D01*
X2668Y2473D01*
X2669Y2480D01*
X2668Y2487D01*
X2665Y2494D01*
X2660Y2500D01*
X2654Y2505D01*
X2647Y2508D01*
X2640Y2509D01*
D02*
G37*
G36*
X2320D02*
X2313Y2508D01*
X2306Y2505D01*
X2300Y2500D01*
X2295Y2494D01*
X2292Y2487D01*
X2291Y2480D01*
X2292Y2473D01*
X2295Y2466D01*
X2300Y2460D01*
X2306Y2455D01*
X2313Y2452D01*
X2320Y2451D01*
X2327Y2452D01*
X2334Y2455D01*
X2340Y2460D01*
X2345Y2466D01*
X2348Y2473D01*
X2349Y2480D01*
X2348Y2487D01*
X2345Y2494D01*
X2340Y2500D01*
X2334Y2505D01*
X2327Y2508D01*
X2320Y2509D01*
D02*
G37*
G36*
X2560D02*
X2553Y2508D01*
X2546Y2505D01*
X2540Y2500D01*
X2535Y2494D01*
X2532Y2487D01*
X2531Y2480D01*
X2532Y2473D01*
X2535Y2466D01*
X2540Y2460D01*
X2546Y2455D01*
X2553Y2452D01*
X2560Y2451D01*
X2567Y2452D01*
X2574Y2455D01*
X2580Y2460D01*
X2585Y2466D01*
X2588Y2473D01*
X2589Y2480D01*
X2588Y2487D01*
X2585Y2494D01*
X2580Y2500D01*
X2574Y2505D01*
X2567Y2508D01*
X2560Y2509D01*
D02*
G37*
G36*
X2880D02*
X2873Y2508D01*
X2866Y2505D01*
X2860Y2500D01*
X2855Y2494D01*
X2852Y2487D01*
X2851Y2480D01*
X2852Y2473D01*
X2855Y2466D01*
X2860Y2460D01*
X2866Y2455D01*
X2873Y2452D01*
X2880Y2451D01*
X2887Y2452D01*
X2894Y2455D01*
X2900Y2460D01*
X2905Y2466D01*
X2908Y2473D01*
X2909Y2480D01*
X2908Y2487D01*
X2905Y2494D01*
X2900Y2500D01*
X2894Y2505D01*
X2887Y2508D01*
X2880Y2509D01*
D02*
G37*
G36*
X1680Y2589D02*
X1673Y2588D01*
X1666Y2585D01*
X1660Y2580D01*
X1655Y2574D01*
X1652Y2567D01*
X1651Y2560D01*
X1652Y2553D01*
X1655Y2546D01*
X1660Y2540D01*
X1666Y2535D01*
X1673Y2532D01*
X1680Y2531D01*
X1687Y2532D01*
X1694Y2535D01*
X1700Y2540D01*
X1705Y2546D01*
X1708Y2553D01*
X1709Y2560D01*
X1708Y2567D01*
X1705Y2574D01*
X1700Y2580D01*
X1694Y2585D01*
X1687Y2588D01*
X1680Y2589D01*
D02*
G37*
G36*
X1760D02*
X1753Y2588D01*
X1746Y2585D01*
X1740Y2580D01*
X1735Y2574D01*
X1732Y2567D01*
X1731Y2560D01*
X1732Y2553D01*
X1735Y2546D01*
X1740Y2540D01*
X1746Y2535D01*
X1753Y2532D01*
X1760Y2531D01*
X1767Y2532D01*
X1774Y2535D01*
X1780Y2540D01*
X1785Y2546D01*
X1788Y2553D01*
X1789Y2560D01*
X1788Y2567D01*
X1785Y2574D01*
X1780Y2580D01*
X1774Y2585D01*
X1767Y2588D01*
X1760Y2589D01*
D02*
G37*
G36*
X1600D02*
X1593Y2588D01*
X1586Y2585D01*
X1580Y2580D01*
X1575Y2574D01*
X1572Y2567D01*
X1571Y2560D01*
X1572Y2553D01*
X1575Y2546D01*
X1580Y2540D01*
X1586Y2535D01*
X1593Y2532D01*
X1600Y2531D01*
X1607Y2532D01*
X1614Y2535D01*
X1620Y2540D01*
X1625Y2546D01*
X1628Y2553D01*
X1629Y2560D01*
X1628Y2567D01*
X1625Y2574D01*
X1620Y2580D01*
X1614Y2585D01*
X1607Y2588D01*
X1600Y2589D01*
D02*
G37*
G36*
X2960Y2509D02*
X2953Y2508D01*
X2946Y2505D01*
X2940Y2500D01*
X2935Y2494D01*
X2932Y2487D01*
X2931Y2480D01*
X2932Y2473D01*
X2935Y2466D01*
X2940Y2460D01*
X2946Y2455D01*
X2953Y2452D01*
X2960Y2451D01*
X2967Y2452D01*
X2974Y2455D01*
X2980Y2460D01*
X2985Y2466D01*
X2988Y2473D01*
X2989Y2480D01*
X2988Y2487D01*
X2985Y2494D01*
X2980Y2500D01*
X2974Y2505D01*
X2967Y2508D01*
X2960Y2509D01*
D02*
G37*
G36*
X1520Y2589D02*
X1513Y2588D01*
X1506Y2585D01*
X1500Y2580D01*
X1495Y2574D01*
X1492Y2567D01*
X1491Y2560D01*
X1492Y2553D01*
X1495Y2546D01*
X1500Y2540D01*
X1506Y2535D01*
X1513Y2532D01*
X1520Y2531D01*
X1527Y2532D01*
X1534Y2535D01*
X1540Y2540D01*
X1545Y2546D01*
X1548Y2553D01*
X1549Y2560D01*
X1548Y2567D01*
X1545Y2574D01*
X1540Y2580D01*
X1534Y2585D01*
X1527Y2588D01*
X1520Y2589D01*
D02*
G37*
G36*
X2560Y2749D02*
X2553Y2748D01*
X2546Y2745D01*
X2540Y2740D01*
X2535Y2734D01*
X2532Y2727D01*
X2531Y2720D01*
X2532Y2713D01*
X2535Y2706D01*
X2540Y2700D01*
X2546Y2695D01*
X2553Y2692D01*
X2560Y2691D01*
X2567Y2692D01*
X2574Y2695D01*
X2580Y2700D01*
X2585Y2706D01*
X2588Y2713D01*
X2589Y2720D01*
X2588Y2727D01*
X2585Y2734D01*
X2580Y2740D01*
X2574Y2745D01*
X2567Y2748D01*
X2560Y2749D01*
D02*
G37*
G36*
X2640D02*
X2633Y2748D01*
X2626Y2745D01*
X2620Y2740D01*
X2615Y2734D01*
X2612Y2727D01*
X2611Y2720D01*
X2612Y2713D01*
X2615Y2706D01*
X2620Y2700D01*
X2626Y2695D01*
X2633Y2692D01*
X2640Y2691D01*
X2647Y2692D01*
X2654Y2695D01*
X2660Y2700D01*
X2665Y2706D01*
X2668Y2713D01*
X2669Y2720D01*
X2668Y2727D01*
X2665Y2734D01*
X2660Y2740D01*
X2654Y2745D01*
X2647Y2748D01*
X2640Y2749D01*
D02*
G37*
G36*
X1760D02*
X1753Y2748D01*
X1746Y2745D01*
X1740Y2740D01*
X1735Y2734D01*
X1732Y2727D01*
X1731Y2720D01*
X1732Y2713D01*
X1735Y2706D01*
X1740Y2700D01*
X1746Y2695D01*
X1753Y2692D01*
X1760Y2691D01*
X1767Y2692D01*
X1774Y2695D01*
X1780Y2700D01*
X1785Y2706D01*
X1788Y2713D01*
X1789Y2720D01*
X1788Y2727D01*
X1785Y2734D01*
X1780Y2740D01*
X1774Y2745D01*
X1767Y2748D01*
X1760Y2749D01*
D02*
G37*
G36*
X1600D02*
X1593Y2748D01*
X1586Y2745D01*
X1580Y2740D01*
X1575Y2734D01*
X1572Y2727D01*
X1571Y2720D01*
X1572Y2713D01*
X1575Y2706D01*
X1580Y2700D01*
X1586Y2695D01*
X1593Y2692D01*
X1600Y2691D01*
X1607Y2692D01*
X1614Y2695D01*
X1620Y2700D01*
X1625Y2706D01*
X1628Y2713D01*
X1629Y2720D01*
X1628Y2727D01*
X1625Y2734D01*
X1620Y2740D01*
X1614Y2745D01*
X1607Y2748D01*
X1600Y2749D01*
D02*
G37*
G36*
X1680D02*
X1673Y2748D01*
X1666Y2745D01*
X1660Y2740D01*
X1655Y2734D01*
X1652Y2727D01*
X1651Y2720D01*
X1652Y2713D01*
X1655Y2706D01*
X1660Y2700D01*
X1666Y2695D01*
X1673Y2692D01*
X1680Y2691D01*
X1687Y2692D01*
X1694Y2695D01*
X1700Y2700D01*
X1705Y2706D01*
X1708Y2713D01*
X1709Y2720D01*
X1708Y2727D01*
X1705Y2734D01*
X1700Y2740D01*
X1694Y2745D01*
X1687Y2748D01*
X1680Y2749D01*
D02*
G37*
G36*
X2720D02*
X2713Y2748D01*
X2706Y2745D01*
X2700Y2740D01*
X2695Y2734D01*
X2692Y2727D01*
X2691Y2720D01*
X2692Y2713D01*
X2695Y2706D01*
X2700Y2700D01*
X2706Y2695D01*
X2713Y2692D01*
X2720Y2691D01*
X2727Y2692D01*
X2734Y2695D01*
X2740Y2700D01*
X2745Y2706D01*
X2748Y2713D01*
X2749Y2720D01*
X2748Y2727D01*
X2745Y2734D01*
X2740Y2740D01*
X2734Y2745D01*
X2727Y2748D01*
X2720Y2749D01*
D02*
G37*
G36*
X1860Y2756D02*
X1827D01*
Y2723D01*
X1860D01*
Y2756D01*
D02*
G37*
G36*
X1917D02*
X1885D01*
Y2723D01*
X1917D01*
Y2756D01*
D02*
G37*
G36*
X2960Y2749D02*
X2953Y2748D01*
X2946Y2745D01*
X2940Y2740D01*
X2935Y2734D01*
X2932Y2727D01*
X2931Y2720D01*
X2932Y2713D01*
X2935Y2706D01*
X2940Y2700D01*
X2946Y2695D01*
X2953Y2692D01*
X2960Y2691D01*
X2967Y2692D01*
X2974Y2695D01*
X2980Y2700D01*
X2985Y2706D01*
X2988Y2713D01*
X2989Y2720D01*
X2988Y2727D01*
X2985Y2734D01*
X2980Y2740D01*
X2974Y2745D01*
X2967Y2748D01*
X2960Y2749D01*
D02*
G37*
G36*
X2800D02*
X2793Y2748D01*
X2786Y2745D01*
X2780Y2740D01*
X2775Y2734D01*
X2772Y2727D01*
X2771Y2720D01*
X2772Y2713D01*
X2775Y2706D01*
X2780Y2700D01*
X2786Y2695D01*
X2793Y2692D01*
X2800Y2691D01*
X2807Y2692D01*
X2814Y2695D01*
X2820Y2700D01*
X2825Y2706D01*
X2828Y2713D01*
X2829Y2720D01*
X2828Y2727D01*
X2825Y2734D01*
X2820Y2740D01*
X2814Y2745D01*
X2807Y2748D01*
X2800Y2749D01*
D02*
G37*
G36*
X2880D02*
X2873Y2748D01*
X2866Y2745D01*
X2860Y2740D01*
X2855Y2734D01*
X2852Y2727D01*
X2851Y2720D01*
X2852Y2713D01*
X2855Y2706D01*
X2860Y2700D01*
X2866Y2695D01*
X2873Y2692D01*
X2880Y2691D01*
X2887Y2692D01*
X2894Y2695D01*
X2900Y2700D01*
X2905Y2706D01*
X2908Y2713D01*
X2909Y2720D01*
X2908Y2727D01*
X2905Y2734D01*
X2900Y2740D01*
X2894Y2745D01*
X2887Y2748D01*
X2880Y2749D01*
D02*
G37*
G36*
X1520D02*
X1513Y2748D01*
X1506Y2745D01*
X1500Y2740D01*
X1495Y2734D01*
X1492Y2727D01*
X1491Y2720D01*
X1492Y2713D01*
X1495Y2706D01*
X1500Y2700D01*
X1506Y2695D01*
X1513Y2692D01*
X1520Y2691D01*
X1527Y2692D01*
X1534Y2695D01*
X1540Y2700D01*
X1545Y2706D01*
X1548Y2713D01*
X1549Y2720D01*
X1548Y2727D01*
X1545Y2734D01*
X1540Y2740D01*
X1534Y2745D01*
X1527Y2748D01*
X1520Y2749D01*
D02*
G37*
G36*
X2640Y2669D02*
X2633Y2668D01*
X2626Y2665D01*
X2620Y2660D01*
X2615Y2654D01*
X2612Y2647D01*
X2611Y2640D01*
X2612Y2633D01*
X2615Y2626D01*
X2620Y2620D01*
X2626Y2615D01*
X2633Y2612D01*
X2640Y2611D01*
X2647Y2612D01*
X2654Y2615D01*
X2660Y2620D01*
X2665Y2626D01*
X2668Y2633D01*
X2669Y2640D01*
X2668Y2647D01*
X2665Y2654D01*
X2660Y2660D01*
X2654Y2665D01*
X2647Y2668D01*
X2640Y2669D01*
D02*
G37*
G36*
X2720D02*
X2713Y2668D01*
X2706Y2665D01*
X2700Y2660D01*
X2695Y2654D01*
X2692Y2647D01*
X2691Y2640D01*
X2692Y2633D01*
X2695Y2626D01*
X2700Y2620D01*
X2706Y2615D01*
X2713Y2612D01*
X2720Y2611D01*
X2727Y2612D01*
X2734Y2615D01*
X2740Y2620D01*
X2745Y2626D01*
X2748Y2633D01*
X2749Y2640D01*
X2748Y2647D01*
X2745Y2654D01*
X2740Y2660D01*
X2734Y2665D01*
X2727Y2668D01*
X2720Y2669D01*
D02*
G37*
G36*
X2560D02*
X2553Y2668D01*
X2546Y2665D01*
X2540Y2660D01*
X2535Y2654D01*
X2532Y2647D01*
X2531Y2640D01*
X2532Y2633D01*
X2535Y2626D01*
X2540Y2620D01*
X2546Y2615D01*
X2553Y2612D01*
X2560Y2611D01*
X2567Y2612D01*
X2574Y2615D01*
X2580Y2620D01*
X2585Y2626D01*
X2588Y2633D01*
X2589Y2640D01*
X2588Y2647D01*
X2585Y2654D01*
X2580Y2660D01*
X2574Y2665D01*
X2567Y2668D01*
X2560Y2669D01*
D02*
G37*
G36*
X1680D02*
X1673Y2668D01*
X1666Y2665D01*
X1660Y2660D01*
X1655Y2654D01*
X1652Y2647D01*
X1651Y2640D01*
X1652Y2633D01*
X1655Y2626D01*
X1660Y2620D01*
X1666Y2615D01*
X1673Y2612D01*
X1680Y2611D01*
X1687Y2612D01*
X1694Y2615D01*
X1700Y2620D01*
X1705Y2626D01*
X1708Y2633D01*
X1709Y2640D01*
X1708Y2647D01*
X1705Y2654D01*
X1700Y2660D01*
X1694Y2665D01*
X1687Y2668D01*
X1680Y2669D01*
D02*
G37*
G36*
X1760D02*
X1753Y2668D01*
X1746Y2665D01*
X1740Y2660D01*
X1735Y2654D01*
X1732Y2647D01*
X1731Y2640D01*
X1732Y2633D01*
X1735Y2626D01*
X1740Y2620D01*
X1746Y2615D01*
X1753Y2612D01*
X1760Y2611D01*
X1767Y2612D01*
X1774Y2615D01*
X1780Y2620D01*
X1785Y2626D01*
X1788Y2633D01*
X1789Y2640D01*
X1788Y2647D01*
X1785Y2654D01*
X1780Y2660D01*
X1774Y2665D01*
X1767Y2668D01*
X1760Y2669D01*
D02*
G37*
G36*
X2800D02*
X2793Y2668D01*
X2786Y2665D01*
X2780Y2660D01*
X2775Y2654D01*
X2772Y2647D01*
X2771Y2640D01*
X2772Y2633D01*
X2775Y2626D01*
X2780Y2620D01*
X2786Y2615D01*
X2793Y2612D01*
X2800Y2611D01*
X2807Y2612D01*
X2814Y2615D01*
X2820Y2620D01*
X2825Y2626D01*
X2828Y2633D01*
X2829Y2640D01*
X2828Y2647D01*
X2825Y2654D01*
X2820Y2660D01*
X2814Y2665D01*
X2807Y2668D01*
X2800Y2669D01*
D02*
G37*
G36*
X2135Y2714D02*
X2123Y2712D01*
X2112Y2708D01*
X2103Y2700D01*
X2095Y2691D01*
X2091Y2680D01*
X2089Y2668D01*
X2091Y2656D01*
X2095Y2645D01*
X2103Y2636D01*
X2112Y2628D01*
X2123Y2624D01*
X2135Y2622D01*
X2147Y2624D01*
X2158Y2628D01*
X2167Y2636D01*
X2175Y2645D01*
X2179Y2656D01*
X2181Y2668D01*
X2179Y2680D01*
X2175Y2691D01*
X2167Y2700D01*
X2158Y2708D01*
X2147Y2712D01*
X2135Y2714D01*
D02*
G37*
G36*
X2363D02*
X2351Y2712D01*
X2340Y2708D01*
X2331Y2700D01*
X2323Y2691D01*
X2319Y2680D01*
X2317Y2668D01*
X2319Y2656D01*
X2323Y2645D01*
X2331Y2636D01*
X2340Y2628D01*
X2351Y2624D01*
X2363Y2622D01*
X2375Y2624D01*
X2386Y2628D01*
X2395Y2636D01*
X2403Y2645D01*
X2407Y2656D01*
X2409Y2668D01*
X2407Y2680D01*
X2403Y2691D01*
X2395Y2700D01*
X2386Y2708D01*
X2375Y2712D01*
X2363Y2714D01*
D02*
G37*
G36*
X1872D02*
X1860Y2712D01*
X1849Y2708D01*
X1840Y2700D01*
X1832Y2691D01*
X1828Y2680D01*
X1826Y2668D01*
X1828Y2656D01*
X1832Y2645D01*
X1840Y2636D01*
X1849Y2628D01*
X1860Y2624D01*
X1872Y2622D01*
X1884Y2624D01*
X1895Y2628D01*
X1904Y2636D01*
X1912Y2645D01*
X1916Y2656D01*
X1918Y2668D01*
X1916Y2680D01*
X1912Y2691D01*
X1904Y2700D01*
X1895Y2708D01*
X1884Y2712D01*
X1872Y2714D01*
D02*
G37*
G36*
X2880Y2669D02*
X2873Y2668D01*
X2866Y2665D01*
X2860Y2660D01*
X2855Y2654D01*
X2852Y2647D01*
X2851Y2640D01*
X2852Y2633D01*
X2855Y2626D01*
X2860Y2620D01*
X2866Y2615D01*
X2873Y2612D01*
X2880Y2611D01*
X2887Y2612D01*
X2894Y2615D01*
X2900Y2620D01*
X2905Y2626D01*
X2908Y2633D01*
X2909Y2640D01*
X2908Y2647D01*
X2905Y2654D01*
X2900Y2660D01*
X2894Y2665D01*
X2887Y2668D01*
X2880Y2669D01*
D02*
G37*
G36*
X2960D02*
X2953Y2668D01*
X2946Y2665D01*
X2940Y2660D01*
X2935Y2654D01*
X2932Y2647D01*
X2931Y2640D01*
X2932Y2633D01*
X2935Y2626D01*
X2940Y2620D01*
X2946Y2615D01*
X2953Y2612D01*
X2960Y2611D01*
X2967Y2612D01*
X2974Y2615D01*
X2980Y2620D01*
X2985Y2626D01*
X2988Y2633D01*
X2989Y2640D01*
X2988Y2647D01*
X2985Y2654D01*
X2980Y2660D01*
X2974Y2665D01*
X2967Y2668D01*
X2960Y2669D01*
D02*
G37*
G36*
X1680Y2349D02*
X1673Y2348D01*
X1666Y2345D01*
X1660Y2340D01*
X1655Y2334D01*
X1652Y2327D01*
X1651Y2320D01*
X1652Y2313D01*
X1655Y2306D01*
X1660Y2300D01*
X1666Y2295D01*
X1673Y2292D01*
X1680Y2291D01*
X1687Y2292D01*
X1694Y2295D01*
X1700Y2300D01*
X1705Y2306D01*
X1708Y2313D01*
X1709Y2320D01*
X1708Y2327D01*
X1705Y2334D01*
X1700Y2340D01*
X1694Y2345D01*
X1687Y2348D01*
X1680Y2349D01*
D02*
G37*
G36*
X1760D02*
X1753Y2348D01*
X1746Y2345D01*
X1740Y2340D01*
X1735Y2334D01*
X1732Y2327D01*
X1731Y2320D01*
X1732Y2313D01*
X1735Y2306D01*
X1740Y2300D01*
X1746Y2295D01*
X1753Y2292D01*
X1760Y2291D01*
X1767Y2292D01*
X1774Y2295D01*
X1780Y2300D01*
X1785Y2306D01*
X1788Y2313D01*
X1789Y2320D01*
X1788Y2327D01*
X1785Y2334D01*
X1780Y2340D01*
X1774Y2345D01*
X1767Y2348D01*
X1760Y2349D01*
D02*
G37*
G36*
X1600D02*
X1593Y2348D01*
X1586Y2345D01*
X1580Y2340D01*
X1575Y2334D01*
X1572Y2327D01*
X1571Y2320D01*
X1572Y2313D01*
X1575Y2306D01*
X1580Y2300D01*
X1586Y2295D01*
X1593Y2292D01*
X1600Y2291D01*
X1607Y2292D01*
X1614Y2295D01*
X1620Y2300D01*
X1625Y2306D01*
X1628Y2313D01*
X1629Y2320D01*
X1628Y2327D01*
X1625Y2334D01*
X1620Y2340D01*
X1614Y2345D01*
X1607Y2348D01*
X1600Y2349D01*
D02*
G37*
G36*
X2008Y2283D02*
X2001Y2282D01*
X1994Y2279D01*
X1988Y2274D01*
X1983Y2268D01*
X1980Y2261D01*
X1979Y2254D01*
X1980Y2247D01*
X1983Y2240D01*
X1988Y2234D01*
X1994Y2229D01*
X2001Y2226D01*
X2008Y2225D01*
X2015Y2226D01*
X2022Y2229D01*
X2028Y2234D01*
X2033Y2240D01*
X2036Y2247D01*
X2037Y2254D01*
X2036Y2261D01*
X2033Y2268D01*
X2028Y2274D01*
X2022Y2279D01*
X2015Y2282D01*
X2008Y2283D01*
D02*
G37*
G36*
X1520Y2349D02*
X1513Y2348D01*
X1506Y2345D01*
X1500Y2340D01*
X1495Y2334D01*
X1492Y2327D01*
X1491Y2320D01*
X1492Y2313D01*
X1495Y2306D01*
X1500Y2300D01*
X1506Y2295D01*
X1513Y2292D01*
X1520Y2291D01*
X1527Y2292D01*
X1534Y2295D01*
X1540Y2300D01*
X1545Y2306D01*
X1548Y2313D01*
X1549Y2320D01*
X1548Y2327D01*
X1545Y2334D01*
X1540Y2340D01*
X1534Y2345D01*
X1527Y2348D01*
X1520Y2349D01*
D02*
G37*
G36*
X1840D02*
X1833Y2348D01*
X1826Y2345D01*
X1820Y2340D01*
X1815Y2334D01*
X1812Y2327D01*
X1811Y2320D01*
X1812Y2313D01*
X1815Y2306D01*
X1820Y2300D01*
X1826Y2295D01*
X1833Y2292D01*
X1840Y2291D01*
X1847Y2292D01*
X1854Y2295D01*
X1860Y2300D01*
X1865Y2306D01*
X1868Y2313D01*
X1869Y2320D01*
X1868Y2327D01*
X1865Y2334D01*
X1860Y2340D01*
X1854Y2345D01*
X1847Y2348D01*
X1840Y2349D01*
D02*
G37*
G36*
X2720D02*
X2713Y2348D01*
X2706Y2345D01*
X2700Y2340D01*
X2695Y2334D01*
X2692Y2327D01*
X2691Y2320D01*
X2692Y2313D01*
X2695Y2306D01*
X2700Y2300D01*
X2706Y2295D01*
X2713Y2292D01*
X2720Y2291D01*
X2727Y2292D01*
X2734Y2295D01*
X2740Y2300D01*
X2745Y2306D01*
X2748Y2313D01*
X2749Y2320D01*
X2748Y2327D01*
X2745Y2334D01*
X2740Y2340D01*
X2734Y2345D01*
X2727Y2348D01*
X2720Y2349D01*
D02*
G37*
G36*
X2800D02*
X2793Y2348D01*
X2786Y2345D01*
X2780Y2340D01*
X2775Y2334D01*
X2772Y2327D01*
X2771Y2320D01*
X2772Y2313D01*
X2775Y2306D01*
X2780Y2300D01*
X2786Y2295D01*
X2793Y2292D01*
X2800Y2291D01*
X2807Y2292D01*
X2814Y2295D01*
X2820Y2300D01*
X2825Y2306D01*
X2828Y2313D01*
X2829Y2320D01*
X2828Y2327D01*
X2825Y2334D01*
X2820Y2340D01*
X2814Y2345D01*
X2807Y2348D01*
X2800Y2349D01*
D02*
G37*
G36*
X2640D02*
X2633Y2348D01*
X2626Y2345D01*
X2620Y2340D01*
X2615Y2334D01*
X2612Y2327D01*
X2611Y2320D01*
X2612Y2313D01*
X2615Y2306D01*
X2620Y2300D01*
X2626Y2295D01*
X2633Y2292D01*
X2640Y2291D01*
X2647Y2292D01*
X2654Y2295D01*
X2660Y2300D01*
X2665Y2306D01*
X2668Y2313D01*
X2669Y2320D01*
X2668Y2327D01*
X2665Y2334D01*
X2660Y2340D01*
X2654Y2345D01*
X2647Y2348D01*
X2640Y2349D01*
D02*
G37*
G36*
X2320D02*
X2313Y2348D01*
X2306Y2345D01*
X2300Y2340D01*
X2295Y2334D01*
X2292Y2327D01*
X2291Y2320D01*
X2292Y2313D01*
X2295Y2306D01*
X2300Y2300D01*
X2306Y2295D01*
X2313Y2292D01*
X2320Y2291D01*
X2327Y2292D01*
X2334Y2295D01*
X2340Y2300D01*
X2345Y2306D01*
X2348Y2313D01*
X2349Y2320D01*
X2348Y2327D01*
X2345Y2334D01*
X2340Y2340D01*
X2334Y2345D01*
X2327Y2348D01*
X2320Y2349D01*
D02*
G37*
G36*
X2560D02*
X2553Y2348D01*
X2546Y2345D01*
X2540Y2340D01*
X2535Y2334D01*
X2532Y2327D01*
X2531Y2320D01*
X2532Y2313D01*
X2535Y2306D01*
X2540Y2300D01*
X2546Y2295D01*
X2553Y2292D01*
X2560Y2291D01*
X2567Y2292D01*
X2574Y2295D01*
X2580Y2300D01*
X2585Y2306D01*
X2588Y2313D01*
X2589Y2320D01*
X2588Y2327D01*
X2585Y2334D01*
X2580Y2340D01*
X2574Y2345D01*
X2567Y2348D01*
X2560Y2349D01*
D02*
G37*
G36*
X2960Y2269D02*
X2953Y2268D01*
X2946Y2265D01*
X2940Y2260D01*
X2935Y2254D01*
X2932Y2247D01*
X2931Y2240D01*
X2932Y2233D01*
X2935Y2226D01*
X2940Y2220D01*
X2946Y2215D01*
X2953Y2212D01*
X2960Y2211D01*
X2967Y2212D01*
X2974Y2215D01*
X2980Y2220D01*
X2985Y2226D01*
X2988Y2233D01*
X2989Y2240D01*
X2988Y2247D01*
X2985Y2254D01*
X2980Y2260D01*
X2974Y2265D01*
X2967Y2268D01*
X2960Y2269D01*
D02*
G37*
G36*
X1680D02*
X1673Y2268D01*
X1666Y2265D01*
X1660Y2260D01*
X1655Y2254D01*
X1652Y2247D01*
X1651Y2240D01*
X1652Y2233D01*
X1655Y2226D01*
X1660Y2220D01*
X1666Y2215D01*
X1673Y2212D01*
X1680Y2211D01*
X1687Y2212D01*
X1694Y2215D01*
X1700Y2220D01*
X1705Y2226D01*
X1708Y2233D01*
X1709Y2240D01*
X1708Y2247D01*
X1705Y2254D01*
X1700Y2260D01*
X1694Y2265D01*
X1687Y2268D01*
X1680Y2269D01*
D02*
G37*
G36*
X1760D02*
X1753Y2268D01*
X1746Y2265D01*
X1740Y2260D01*
X1735Y2254D01*
X1732Y2247D01*
X1731Y2240D01*
X1732Y2233D01*
X1735Y2226D01*
X1740Y2220D01*
X1746Y2215D01*
X1753Y2212D01*
X1760Y2211D01*
X1767Y2212D01*
X1774Y2215D01*
X1780Y2220D01*
X1785Y2226D01*
X1788Y2233D01*
X1789Y2240D01*
X1788Y2247D01*
X1785Y2254D01*
X1780Y2260D01*
X1774Y2265D01*
X1767Y2268D01*
X1760Y2269D01*
D02*
G37*
G36*
X1600D02*
X1593Y2268D01*
X1586Y2265D01*
X1580Y2260D01*
X1575Y2254D01*
X1572Y2247D01*
X1571Y2240D01*
X1572Y2233D01*
X1575Y2226D01*
X1580Y2220D01*
X1586Y2215D01*
X1593Y2212D01*
X1600Y2211D01*
X1607Y2212D01*
X1614Y2215D01*
X1620Y2220D01*
X1625Y2226D01*
X1628Y2233D01*
X1629Y2240D01*
X1628Y2247D01*
X1625Y2254D01*
X1620Y2260D01*
X1614Y2265D01*
X1607Y2268D01*
X1600Y2269D01*
D02*
G37*
G36*
X2163Y2261D02*
X2156Y2260D01*
X2149Y2257D01*
X2143Y2252D01*
X2138Y2246D01*
X2135Y2239D01*
X2134Y2232D01*
X2135Y2225D01*
X2138Y2218D01*
X2143Y2212D01*
X2149Y2207D01*
X2156Y2204D01*
X2163Y2203D01*
X2170Y2204D01*
X2177Y2207D01*
X2183Y2212D01*
X2188Y2218D01*
X2191Y2225D01*
X2192Y2232D01*
X2191Y2239D01*
X2188Y2246D01*
X2183Y2252D01*
X2177Y2257D01*
X2170Y2260D01*
X2163Y2261D01*
D02*
G37*
G36*
X1520Y2269D02*
X1513Y2268D01*
X1506Y2265D01*
X1500Y2260D01*
X1495Y2254D01*
X1492Y2247D01*
X1491Y2240D01*
X1492Y2233D01*
X1495Y2226D01*
X1500Y2220D01*
X1506Y2215D01*
X1513Y2212D01*
X1520Y2211D01*
X1527Y2212D01*
X1534Y2215D01*
X1540Y2220D01*
X1545Y2226D01*
X1548Y2233D01*
X1549Y2240D01*
X1548Y2247D01*
X1545Y2254D01*
X1540Y2260D01*
X1534Y2265D01*
X1527Y2268D01*
X1520Y2269D01*
D02*
G37*
G36*
X1840D02*
X1833Y2268D01*
X1826Y2265D01*
X1820Y2260D01*
X1815Y2254D01*
X1812Y2247D01*
X1811Y2240D01*
X1812Y2233D01*
X1815Y2226D01*
X1820Y2220D01*
X1826Y2215D01*
X1833Y2212D01*
X1840Y2211D01*
X1847Y2212D01*
X1854Y2215D01*
X1860Y2220D01*
X1865Y2226D01*
X1868Y2233D01*
X1869Y2240D01*
X1868Y2247D01*
X1865Y2254D01*
X1860Y2260D01*
X1854Y2265D01*
X1847Y2268D01*
X1840Y2269D01*
D02*
G37*
G36*
X2800D02*
X2793Y2268D01*
X2786Y2265D01*
X2780Y2260D01*
X2775Y2254D01*
X2772Y2247D01*
X2771Y2240D01*
X2772Y2233D01*
X2775Y2226D01*
X2780Y2220D01*
X2786Y2215D01*
X2793Y2212D01*
X2800Y2211D01*
X2807Y2212D01*
X2814Y2215D01*
X2820Y2220D01*
X2825Y2226D01*
X2828Y2233D01*
X2829Y2240D01*
X2828Y2247D01*
X2825Y2254D01*
X2820Y2260D01*
X2814Y2265D01*
X2807Y2268D01*
X2800Y2269D01*
D02*
G37*
G36*
X2880D02*
X2873Y2268D01*
X2866Y2265D01*
X2860Y2260D01*
X2855Y2254D01*
X2852Y2247D01*
X2851Y2240D01*
X2852Y2233D01*
X2855Y2226D01*
X2860Y2220D01*
X2866Y2215D01*
X2873Y2212D01*
X2880Y2211D01*
X2887Y2212D01*
X2894Y2215D01*
X2900Y2220D01*
X2905Y2226D01*
X2908Y2233D01*
X2909Y2240D01*
X2908Y2247D01*
X2905Y2254D01*
X2900Y2260D01*
X2894Y2265D01*
X2887Y2268D01*
X2880Y2269D01*
D02*
G37*
G36*
X2720D02*
X2713Y2268D01*
X2706Y2265D01*
X2700Y2260D01*
X2695Y2254D01*
X2692Y2247D01*
X2691Y2240D01*
X2692Y2233D01*
X2695Y2226D01*
X2700Y2220D01*
X2706Y2215D01*
X2713Y2212D01*
X2720Y2211D01*
X2727Y2212D01*
X2734Y2215D01*
X2740Y2220D01*
X2745Y2226D01*
X2748Y2233D01*
X2749Y2240D01*
X2748Y2247D01*
X2745Y2254D01*
X2740Y2260D01*
X2734Y2265D01*
X2727Y2268D01*
X2720Y2269D01*
D02*
G37*
G36*
X2560D02*
X2553Y2268D01*
X2546Y2265D01*
X2540Y2260D01*
X2535Y2254D01*
X2532Y2247D01*
X2531Y2240D01*
X2532Y2233D01*
X2535Y2226D01*
X2540Y2220D01*
X2546Y2215D01*
X2553Y2212D01*
X2560Y2211D01*
X2567Y2212D01*
X2574Y2215D01*
X2580Y2220D01*
X2585Y2226D01*
X2588Y2233D01*
X2589Y2240D01*
X2588Y2247D01*
X2585Y2254D01*
X2580Y2260D01*
X2574Y2265D01*
X2567Y2268D01*
X2560Y2269D01*
D02*
G37*
G36*
X2640D02*
X2633Y2268D01*
X2626Y2265D01*
X2620Y2260D01*
X2615Y2254D01*
X2612Y2247D01*
X2611Y2240D01*
X2612Y2233D01*
X2615Y2226D01*
X2620Y2220D01*
X2626Y2215D01*
X2633Y2212D01*
X2640Y2211D01*
X2647Y2212D01*
X2654Y2215D01*
X2660Y2220D01*
X2665Y2226D01*
X2668Y2233D01*
X2669Y2240D01*
X2668Y2247D01*
X2665Y2254D01*
X2660Y2260D01*
X2654Y2265D01*
X2647Y2268D01*
X2640Y2269D01*
D02*
G37*
G36*
X2960Y2429D02*
X2953Y2428D01*
X2946Y2425D01*
X2940Y2420D01*
X2935Y2414D01*
X2932Y2407D01*
X2931Y2400D01*
X2932Y2393D01*
X2935Y2386D01*
X2940Y2380D01*
X2946Y2375D01*
X2953Y2372D01*
X2960Y2371D01*
X2967Y2372D01*
X2974Y2375D01*
X2980Y2380D01*
X2985Y2386D01*
X2988Y2393D01*
X2989Y2400D01*
X2988Y2407D01*
X2985Y2414D01*
X2980Y2420D01*
X2974Y2425D01*
X2967Y2428D01*
X2960Y2429D01*
D02*
G37*
G36*
X1520Y2509D02*
X1513Y2508D01*
X1506Y2505D01*
X1500Y2500D01*
X1495Y2494D01*
X1492Y2487D01*
X1491Y2480D01*
X1492Y2473D01*
X1495Y2466D01*
X1500Y2460D01*
X1506Y2455D01*
X1513Y2452D01*
X1520Y2451D01*
X1527Y2452D01*
X1534Y2455D01*
X1540Y2460D01*
X1545Y2466D01*
X1548Y2473D01*
X1549Y2480D01*
X1548Y2487D01*
X1545Y2494D01*
X1540Y2500D01*
X1534Y2505D01*
X1527Y2508D01*
X1520Y2509D01*
D02*
G37*
G36*
X2880Y2429D02*
X2873Y2428D01*
X2866Y2425D01*
X2860Y2420D01*
X2855Y2414D01*
X2852Y2407D01*
X2851Y2400D01*
X2852Y2393D01*
X2855Y2386D01*
X2860Y2380D01*
X2866Y2375D01*
X2873Y2372D01*
X2880Y2371D01*
X2887Y2372D01*
X2894Y2375D01*
X2900Y2380D01*
X2905Y2386D01*
X2908Y2393D01*
X2909Y2400D01*
X2908Y2407D01*
X2905Y2414D01*
X2900Y2420D01*
X2894Y2425D01*
X2887Y2428D01*
X2880Y2429D01*
D02*
G37*
G36*
X2720D02*
X2713Y2428D01*
X2706Y2425D01*
X2700Y2420D01*
X2695Y2414D01*
X2692Y2407D01*
X2691Y2400D01*
X2692Y2393D01*
X2695Y2386D01*
X2700Y2380D01*
X2706Y2375D01*
X2713Y2372D01*
X2720Y2371D01*
X2727Y2372D01*
X2734Y2375D01*
X2740Y2380D01*
X2745Y2386D01*
X2748Y2393D01*
X2749Y2400D01*
X2748Y2407D01*
X2745Y2414D01*
X2740Y2420D01*
X2734Y2425D01*
X2727Y2428D01*
X2720Y2429D01*
D02*
G37*
G36*
X2800D02*
X2793Y2428D01*
X2786Y2425D01*
X2780Y2420D01*
X2775Y2414D01*
X2772Y2407D01*
X2771Y2400D01*
X2772Y2393D01*
X2775Y2386D01*
X2780Y2380D01*
X2786Y2375D01*
X2793Y2372D01*
X2800Y2371D01*
X2807Y2372D01*
X2814Y2375D01*
X2820Y2380D01*
X2825Y2386D01*
X2828Y2393D01*
X2829Y2400D01*
X2828Y2407D01*
X2825Y2414D01*
X2820Y2420D01*
X2814Y2425D01*
X2807Y2428D01*
X2800Y2429D01*
D02*
G37*
G36*
X1600Y2509D02*
X1593Y2508D01*
X1586Y2505D01*
X1580Y2500D01*
X1575Y2494D01*
X1572Y2487D01*
X1571Y2480D01*
X1572Y2473D01*
X1575Y2466D01*
X1580Y2460D01*
X1586Y2455D01*
X1593Y2452D01*
X1600Y2451D01*
X1607Y2452D01*
X1614Y2455D01*
X1620Y2460D01*
X1625Y2466D01*
X1628Y2473D01*
X1629Y2480D01*
X1628Y2487D01*
X1625Y2494D01*
X1620Y2500D01*
X1614Y2505D01*
X1607Y2508D01*
X1600Y2509D01*
D02*
G37*
G36*
X2080D02*
X2073Y2508D01*
X2066Y2505D01*
X2060Y2500D01*
X2055Y2494D01*
X2052Y2487D01*
X2051Y2480D01*
X2052Y2473D01*
X2055Y2466D01*
X2060Y2460D01*
X2066Y2455D01*
X2073Y2452D01*
X2080Y2451D01*
X2087Y2452D01*
X2094Y2455D01*
X2100Y2460D01*
X2105Y2466D01*
X2108Y2473D01*
X2109Y2480D01*
X2108Y2487D01*
X2105Y2494D01*
X2100Y2500D01*
X2094Y2505D01*
X2087Y2508D01*
X2080Y2509D01*
D02*
G37*
G36*
X2160D02*
X2153Y2508D01*
X2146Y2505D01*
X2140Y2500D01*
X2135Y2494D01*
X2132Y2487D01*
X2131Y2480D01*
X2132Y2473D01*
X2135Y2466D01*
X2140Y2460D01*
X2146Y2455D01*
X2153Y2452D01*
X2160Y2451D01*
X2167Y2452D01*
X2174Y2455D01*
X2180Y2460D01*
X2185Y2466D01*
X2188Y2473D01*
X2189Y2480D01*
X2188Y2487D01*
X2185Y2494D01*
X2180Y2500D01*
X2174Y2505D01*
X2167Y2508D01*
X2160Y2509D01*
D02*
G37*
G36*
X1840D02*
X1833Y2508D01*
X1826Y2505D01*
X1820Y2500D01*
X1815Y2494D01*
X1812Y2487D01*
X1811Y2480D01*
X1812Y2473D01*
X1815Y2466D01*
X1820Y2460D01*
X1826Y2455D01*
X1833Y2452D01*
X1840Y2451D01*
X1847Y2452D01*
X1854Y2455D01*
X1860Y2460D01*
X1865Y2466D01*
X1868Y2473D01*
X1869Y2480D01*
X1868Y2487D01*
X1865Y2494D01*
X1860Y2500D01*
X1854Y2505D01*
X1847Y2508D01*
X1840Y2509D01*
D02*
G37*
G36*
X1680D02*
X1673Y2508D01*
X1666Y2505D01*
X1660Y2500D01*
X1655Y2494D01*
X1652Y2487D01*
X1651Y2480D01*
X1652Y2473D01*
X1655Y2466D01*
X1660Y2460D01*
X1666Y2455D01*
X1673Y2452D01*
X1680Y2451D01*
X1687Y2452D01*
X1694Y2455D01*
X1700Y2460D01*
X1705Y2466D01*
X1708Y2473D01*
X1709Y2480D01*
X1708Y2487D01*
X1705Y2494D01*
X1700Y2500D01*
X1694Y2505D01*
X1687Y2508D01*
X1680Y2509D01*
D02*
G37*
G36*
X1760D02*
X1753Y2508D01*
X1746Y2505D01*
X1740Y2500D01*
X1735Y2494D01*
X1732Y2487D01*
X1731Y2480D01*
X1732Y2473D01*
X1735Y2466D01*
X1740Y2460D01*
X1746Y2455D01*
X1753Y2452D01*
X1760Y2451D01*
X1767Y2452D01*
X1774Y2455D01*
X1780Y2460D01*
X1785Y2466D01*
X1788Y2473D01*
X1789Y2480D01*
X1788Y2487D01*
X1785Y2494D01*
X1780Y2500D01*
X1774Y2505D01*
X1767Y2508D01*
X1760Y2509D01*
D02*
G37*
G36*
X2640Y2429D02*
X2633Y2428D01*
X2626Y2425D01*
X2620Y2420D01*
X2615Y2414D01*
X2612Y2407D01*
X2611Y2400D01*
X2612Y2393D01*
X2615Y2386D01*
X2620Y2380D01*
X2626Y2375D01*
X2633Y2372D01*
X2640Y2371D01*
X2647Y2372D01*
X2654Y2375D01*
X2660Y2380D01*
X2665Y2386D01*
X2668Y2393D01*
X2669Y2400D01*
X2668Y2407D01*
X2665Y2414D01*
X2660Y2420D01*
X2654Y2425D01*
X2647Y2428D01*
X2640Y2429D01*
D02*
G37*
G36*
X2008Y2383D02*
X2001Y2382D01*
X1994Y2379D01*
X1988Y2374D01*
X1983Y2368D01*
X1980Y2361D01*
X1979Y2354D01*
X1980Y2347D01*
X1983Y2340D01*
X1988Y2334D01*
X1994Y2329D01*
X2001Y2326D01*
X2008Y2325D01*
X2015Y2326D01*
X2022Y2329D01*
X2028Y2334D01*
X2033Y2340D01*
X2036Y2347D01*
X2037Y2354D01*
X2036Y2361D01*
X2033Y2368D01*
X2028Y2374D01*
X2022Y2379D01*
X2015Y2382D01*
X2008Y2383D01*
D02*
G37*
G36*
X1520Y2429D02*
X1513Y2428D01*
X1506Y2425D01*
X1500Y2420D01*
X1495Y2414D01*
X1492Y2407D01*
X1491Y2400D01*
X1492Y2393D01*
X1495Y2386D01*
X1500Y2380D01*
X1506Y2375D01*
X1513Y2372D01*
X1520Y2371D01*
X1527Y2372D01*
X1534Y2375D01*
X1540Y2380D01*
X1545Y2386D01*
X1548Y2393D01*
X1549Y2400D01*
X1548Y2407D01*
X1545Y2414D01*
X1540Y2420D01*
X1534Y2425D01*
X1527Y2428D01*
X1520Y2429D01*
D02*
G37*
G36*
X2162Y2374D02*
X2155Y2373D01*
X2148Y2370D01*
X2142Y2365D01*
X2137Y2359D01*
X2134Y2352D01*
X2133Y2345D01*
X2134Y2338D01*
X2137Y2331D01*
X2142Y2325D01*
X2148Y2320D01*
X2155Y2317D01*
X2162Y2316D01*
X2169Y2317D01*
X2176Y2320D01*
X2182Y2325D01*
X2187Y2331D01*
X2190Y2338D01*
X2191Y2345D01*
X2190Y2352D01*
X2187Y2359D01*
X2182Y2365D01*
X2176Y2370D01*
X2169Y2373D01*
X2162Y2374D01*
D02*
G37*
G36*
X2880Y2349D02*
X2873Y2348D01*
X2866Y2345D01*
X2860Y2340D01*
X2855Y2334D01*
X2852Y2327D01*
X2851Y2320D01*
X2852Y2313D01*
X2855Y2306D01*
X2860Y2300D01*
X2866Y2295D01*
X2873Y2292D01*
X2880Y2291D01*
X2887Y2292D01*
X2894Y2295D01*
X2900Y2300D01*
X2905Y2306D01*
X2908Y2313D01*
X2909Y2320D01*
X2908Y2327D01*
X2905Y2334D01*
X2900Y2340D01*
X2894Y2345D01*
X2887Y2348D01*
X2880Y2349D01*
D02*
G37*
G36*
X2960D02*
X2953Y2348D01*
X2946Y2345D01*
X2940Y2340D01*
X2935Y2334D01*
X2932Y2327D01*
X2931Y2320D01*
X2932Y2313D01*
X2935Y2306D01*
X2940Y2300D01*
X2946Y2295D01*
X2953Y2292D01*
X2960Y2291D01*
X2967Y2292D01*
X2974Y2295D01*
X2980Y2300D01*
X2985Y2306D01*
X2988Y2313D01*
X2989Y2320D01*
X2988Y2327D01*
X2985Y2334D01*
X2980Y2340D01*
X2974Y2345D01*
X2967Y2348D01*
X2960Y2349D01*
D02*
G37*
G36*
X1600Y2429D02*
X1593Y2428D01*
X1586Y2425D01*
X1580Y2420D01*
X1575Y2414D01*
X1572Y2407D01*
X1571Y2400D01*
X1572Y2393D01*
X1575Y2386D01*
X1580Y2380D01*
X1586Y2375D01*
X1593Y2372D01*
X1600Y2371D01*
X1607Y2372D01*
X1614Y2375D01*
X1620Y2380D01*
X1625Y2386D01*
X1628Y2393D01*
X1629Y2400D01*
X1628Y2407D01*
X1625Y2414D01*
X1620Y2420D01*
X1614Y2425D01*
X1607Y2428D01*
X1600Y2429D01*
D02*
G37*
G36*
X2320D02*
X2313Y2428D01*
X2306Y2425D01*
X2300Y2420D01*
X2295Y2414D01*
X2292Y2407D01*
X2291Y2400D01*
X2292Y2393D01*
X2295Y2386D01*
X2300Y2380D01*
X2306Y2375D01*
X2313Y2372D01*
X2320Y2371D01*
X2327Y2372D01*
X2334Y2375D01*
X2340Y2380D01*
X2345Y2386D01*
X2348Y2393D01*
X2349Y2400D01*
X2348Y2407D01*
X2345Y2414D01*
X2340Y2420D01*
X2334Y2425D01*
X2327Y2428D01*
X2320Y2429D01*
D02*
G37*
G36*
X2560D02*
X2553Y2428D01*
X2546Y2425D01*
X2540Y2420D01*
X2535Y2414D01*
X2532Y2407D01*
X2531Y2400D01*
X2532Y2393D01*
X2535Y2386D01*
X2540Y2380D01*
X2546Y2375D01*
X2553Y2372D01*
X2560Y2371D01*
X2567Y2372D01*
X2574Y2375D01*
X2580Y2380D01*
X2585Y2386D01*
X2588Y2393D01*
X2589Y2400D01*
X2588Y2407D01*
X2585Y2414D01*
X2580Y2420D01*
X2574Y2425D01*
X2567Y2428D01*
X2560Y2429D01*
D02*
G37*
G36*
X1840D02*
X1833Y2428D01*
X1826Y2425D01*
X1820Y2420D01*
X1815Y2414D01*
X1812Y2407D01*
X1811Y2400D01*
X1812Y2393D01*
X1815Y2386D01*
X1820Y2380D01*
X1826Y2375D01*
X1833Y2372D01*
X1840Y2371D01*
X1847Y2372D01*
X1854Y2375D01*
X1860Y2380D01*
X1865Y2386D01*
X1868Y2393D01*
X1869Y2400D01*
X1868Y2407D01*
X1865Y2414D01*
X1860Y2420D01*
X1854Y2425D01*
X1847Y2428D01*
X1840Y2429D01*
D02*
G37*
G36*
X1680D02*
X1673Y2428D01*
X1666Y2425D01*
X1660Y2420D01*
X1655Y2414D01*
X1652Y2407D01*
X1651Y2400D01*
X1652Y2393D01*
X1655Y2386D01*
X1660Y2380D01*
X1666Y2375D01*
X1673Y2372D01*
X1680Y2371D01*
X1687Y2372D01*
X1694Y2375D01*
X1700Y2380D01*
X1705Y2386D01*
X1708Y2393D01*
X1709Y2400D01*
X1708Y2407D01*
X1705Y2414D01*
X1700Y2420D01*
X1694Y2425D01*
X1687Y2428D01*
X1680Y2429D01*
D02*
G37*
G36*
X1760D02*
X1753Y2428D01*
X1746Y2425D01*
X1740Y2420D01*
X1735Y2414D01*
X1732Y2407D01*
X1731Y2400D01*
X1732Y2393D01*
X1735Y2386D01*
X1740Y2380D01*
X1746Y2375D01*
X1753Y2372D01*
X1760Y2371D01*
X1767Y2372D01*
X1774Y2375D01*
X1780Y2380D01*
X1785Y2386D01*
X1788Y2393D01*
X1789Y2400D01*
X1788Y2407D01*
X1785Y2414D01*
X1780Y2420D01*
X1774Y2425D01*
X1767Y2428D01*
X1760Y2429D01*
D02*
G37*
%LPD*%
D28*
X1872Y2768D02*
D03*
M02*
