G04 Layer_Color=8388736*
%FSLAX25Y25*%
%MOIN*%
G70*
G01*
G75*
%ADD37R,0.03356X0.01781*%
%ADD38R,0.01781X0.03356*%
%ADD39R,0.06899X0.06899*%
%ADD40R,0.06781X0.06781*%
%ADD41R,0.08317X0.08317*%
%ADD42R,0.02765X0.02962*%
%ADD43R,0.02962X0.02765*%
%ADD44R,0.03750X0.03947*%
%ADD45R,0.02962X0.02962*%
%ADD46R,0.02962X0.02962*%
%ADD47R,0.03750X0.03750*%
%ADD48R,0.03750X0.03750*%
%ADD49R,0.07687X0.07687*%
%ADD50C,0.07687*%
%ADD51C,0.04300*%
D37*
X216000Y203969D02*
D03*
Y201969D02*
D03*
Y199969D02*
D03*
X226827D02*
D03*
Y201969D02*
D03*
Y203969D02*
D03*
D38*
X219413Y196555D02*
D03*
X221413D02*
D03*
X223413D02*
D03*
Y207382D02*
D03*
X221413D02*
D03*
X219413D02*
D03*
D39*
X221413Y201969D02*
D03*
D40*
X165200Y200200D02*
D03*
X283200Y201300D02*
D03*
D41*
X155850Y190850D02*
D03*
Y209550D02*
D03*
X174550D02*
D03*
Y190850D02*
D03*
X273850Y191950D02*
D03*
Y210650D02*
D03*
X292550D02*
D03*
Y191950D02*
D03*
D42*
X211535Y227700D02*
D03*
X215865D02*
D03*
X215265Y214100D02*
D03*
X210935D02*
D03*
X207579Y219800D02*
D03*
X203249D02*
D03*
X191735Y241300D02*
D03*
X196065D02*
D03*
X220835Y247700D02*
D03*
X225165D02*
D03*
X223865Y191300D02*
D03*
X219535D02*
D03*
X236031Y213500D02*
D03*
X231700D02*
D03*
D43*
X202200Y211565D02*
D03*
Y207235D02*
D03*
X257500Y200935D02*
D03*
Y205265D02*
D03*
D44*
X249656Y239000D02*
D03*
X244144D02*
D03*
D45*
X215568Y241300D02*
D03*
X211631D02*
D03*
D46*
X205700Y231737D02*
D03*
Y227800D02*
D03*
X211600Y232900D02*
D03*
Y236837D02*
D03*
D47*
X193500Y200051D02*
D03*
Y193752D02*
D03*
X221413Y234725D02*
D03*
Y228426D02*
D03*
D48*
X200126Y200000D02*
D03*
X206425D02*
D03*
X231675Y220300D02*
D03*
X237974D02*
D03*
X251025Y200932D02*
D03*
X244726D02*
D03*
D49*
X213500Y276800D02*
D03*
X187200D02*
D03*
X236300D02*
D03*
D50*
X213500Y266800D02*
D03*
X187200D02*
D03*
X236300D02*
D03*
D51*
X288000Y272000D02*
D03*
Y264000D02*
D03*
Y256000D02*
D03*
Y248000D02*
D03*
Y240000D02*
D03*
Y232000D02*
D03*
Y224000D02*
D03*
Y184000D02*
D03*
Y176000D02*
D03*
Y168000D02*
D03*
Y160000D02*
D03*
X280000Y272000D02*
D03*
Y264000D02*
D03*
Y256000D02*
D03*
Y248000D02*
D03*
Y240000D02*
D03*
Y232000D02*
D03*
Y224000D02*
D03*
Y184000D02*
D03*
Y176000D02*
D03*
Y168000D02*
D03*
Y160000D02*
D03*
X272000Y272000D02*
D03*
Y264000D02*
D03*
Y256000D02*
D03*
Y248000D02*
D03*
Y240000D02*
D03*
Y232000D02*
D03*
Y224000D02*
D03*
Y184000D02*
D03*
Y176000D02*
D03*
Y168000D02*
D03*
Y160000D02*
D03*
X264000Y272000D02*
D03*
Y264000D02*
D03*
Y256000D02*
D03*
Y248000D02*
D03*
Y240000D02*
D03*
Y232000D02*
D03*
Y224000D02*
D03*
Y216000D02*
D03*
Y192000D02*
D03*
Y184000D02*
D03*
Y176000D02*
D03*
Y168000D02*
D03*
Y160000D02*
D03*
X256000Y272000D02*
D03*
Y264000D02*
D03*
Y256000D02*
D03*
Y248000D02*
D03*
Y240000D02*
D03*
Y232000D02*
D03*
Y224000D02*
D03*
Y216000D02*
D03*
Y192000D02*
D03*
Y184000D02*
D03*
Y176000D02*
D03*
Y168000D02*
D03*
Y160000D02*
D03*
X248000Y216000D02*
D03*
Y192000D02*
D03*
Y184000D02*
D03*
Y176000D02*
D03*
Y168000D02*
D03*
Y160000D02*
D03*
X240000Y192000D02*
D03*
Y184000D02*
D03*
Y176000D02*
D03*
Y168000D02*
D03*
Y160000D02*
D03*
X232000Y256000D02*
D03*
Y248000D02*
D03*
Y240000D02*
D03*
Y232000D02*
D03*
Y192000D02*
D03*
Y184000D02*
D03*
Y176000D02*
D03*
Y168000D02*
D03*
Y160000D02*
D03*
X224000Y184000D02*
D03*
Y176000D02*
D03*
Y168000D02*
D03*
Y160000D02*
D03*
X216000Y256000D02*
D03*
Y248000D02*
D03*
Y184000D02*
D03*
Y176000D02*
D03*
Y168000D02*
D03*
Y160000D02*
D03*
X208000Y256000D02*
D03*
Y248000D02*
D03*
Y192000D02*
D03*
Y184000D02*
D03*
Y176000D02*
D03*
Y168000D02*
D03*
Y160000D02*
D03*
X200000Y192000D02*
D03*
Y184000D02*
D03*
Y176000D02*
D03*
Y168000D02*
D03*
Y160000D02*
D03*
X192000Y208000D02*
D03*
Y184000D02*
D03*
Y176000D02*
D03*
Y168000D02*
D03*
Y160000D02*
D03*
X184000Y256000D02*
D03*
Y248000D02*
D03*
Y240000D02*
D03*
Y232000D02*
D03*
Y224000D02*
D03*
Y216000D02*
D03*
Y208000D02*
D03*
Y192000D02*
D03*
Y184000D02*
D03*
Y176000D02*
D03*
Y168000D02*
D03*
Y160000D02*
D03*
X176000Y272000D02*
D03*
Y264000D02*
D03*
Y256000D02*
D03*
Y248000D02*
D03*
Y240000D02*
D03*
Y232000D02*
D03*
Y224000D02*
D03*
Y184000D02*
D03*
Y176000D02*
D03*
Y168000D02*
D03*
Y160000D02*
D03*
X168000Y272000D02*
D03*
Y264000D02*
D03*
Y256000D02*
D03*
Y248000D02*
D03*
Y240000D02*
D03*
Y232000D02*
D03*
Y224000D02*
D03*
Y184000D02*
D03*
Y176000D02*
D03*
Y168000D02*
D03*
Y160000D02*
D03*
X160000Y272000D02*
D03*
Y264000D02*
D03*
Y256000D02*
D03*
Y248000D02*
D03*
Y240000D02*
D03*
Y232000D02*
D03*
Y224000D02*
D03*
Y184000D02*
D03*
Y176000D02*
D03*
Y168000D02*
D03*
Y160000D02*
D03*
X152000Y272000D02*
D03*
Y264000D02*
D03*
Y256000D02*
D03*
Y248000D02*
D03*
Y240000D02*
D03*
Y232000D02*
D03*
Y224000D02*
D03*
Y200000D02*
D03*
Y184000D02*
D03*
Y176000D02*
D03*
Y168000D02*
D03*
Y160000D02*
D03*
X216300Y223200D02*
D03*
X216200Y234500D02*
D03*
X200800Y235400D02*
D03*
Y225400D02*
D03*
M02*
