G04 Layer_Physical_Order=1*
G04 Layer_Color=255*
%FSLAX25Y25*%
%MOIN*%
G70*
G01*
G75*
%ADD10R,0.02756X0.01181*%
%ADD11R,0.01181X0.02756*%
%ADD12R,0.06299X0.06299*%
%ADD13R,0.06181X0.06181*%
%ADD14R,0.07717X0.07717*%
%ADD15R,0.02165X0.02362*%
%ADD16R,0.02362X0.02165*%
%ADD17R,0.03150X0.03347*%
%ADD18R,0.02362X0.02362*%
%ADD19R,0.02362X0.02362*%
%ADD20R,0.03150X0.03150*%
%ADD21R,0.03150X0.03150*%
%ADD22C,0.01000*%
%ADD23C,0.01600*%
%ADD24C,0.02000*%
%ADD25C,0.02500*%
%ADD26R,0.07087X0.07087*%
%ADD27C,0.07087*%
%ADD28C,0.03700*%
G36*
X245600Y281200D02*
X245600Y241673D01*
X244644D01*
Y239000D01*
X243644D01*
Y241673D01*
X243000D01*
X243000Y281200D01*
X245600Y281200D01*
D02*
G37*
G36*
X218600Y238677D02*
X218600Y215877D01*
X217148Y215877D01*
Y216081D01*
X216591D01*
Y218635D01*
X216490Y219142D01*
X216203Y219572D01*
X214000Y221775D01*
Y225519D01*
X215365D01*
Y227700D01*
Y229881D01*
X214000D01*
Y238677D01*
X218600Y238677D01*
D02*
G37*
G36*
X196800Y281300D02*
X196800Y243481D01*
X196565D01*
Y241300D01*
X195565D01*
Y243481D01*
X194200D01*
X194200Y281300D01*
X196800Y281300D01*
D02*
G37*
G36*
X204375Y239677D02*
Y233718D01*
X203719D01*
Y229756D01*
Y225819D01*
X204375D01*
Y224900D01*
X204400Y224772D01*
Y221981D01*
X203749D01*
Y219800D01*
Y217619D01*
X204131D01*
X204231Y217300D01*
X203889Y216877D01*
X198100Y216877D01*
X198100Y239323D01*
X198453Y239677D01*
X204375Y239677D01*
D02*
G37*
G36*
X182857Y280877D02*
Y272457D01*
X191543D01*
Y274965D01*
X192100D01*
Y268090D01*
X191626Y267986D01*
X191169Y269091D01*
X190440Y270040D01*
X189491Y270769D01*
X188450Y271200D01*
Y266800D01*
Y262400D01*
X189491Y262831D01*
X190440Y263560D01*
X191169Y264509D01*
X191626Y265614D01*
X192100Y265510D01*
X192100Y243481D01*
X189652D01*
Y241800D01*
X191735D01*
Y240800D01*
X189652D01*
Y239119D01*
X192100D01*
X192100Y215200D01*
X194246Y215200D01*
X194290Y214979D01*
X194577Y214549D01*
X198463Y210663D01*
X198893Y210375D01*
X199400Y210275D01*
X200219D01*
Y209683D01*
X200019Y209317D01*
X200019D01*
Y207735D01*
X202200D01*
Y206735D01*
X200019D01*
Y205954D01*
X199665Y205600D01*
X179409Y205600D01*
Y209050D01*
X169692D01*
Y205954D01*
X169339Y205600D01*
X160708Y205600D01*
Y209050D01*
X156350D01*
Y204692D01*
X157900D01*
X157900Y197300D01*
X161309Y197300D01*
Y196309D01*
X169091D01*
Y197300D01*
X217823Y197300D01*
Y197055D01*
X219413D01*
Y196555D01*
X219913D01*
Y194177D01*
X220913D01*
Y196555D01*
X221913D01*
Y194177D01*
X222056D01*
Y193628D01*
X221617Y193481D01*
X221566Y193481D01*
X220035D01*
Y191300D01*
Y189119D01*
X221566D01*
X221617Y189119D01*
X222035Y189319D01*
X222117Y189319D01*
X225748D01*
Y193281D01*
X224707D01*
Y194377D01*
X224804D01*
Y197300D01*
X268971Y197300D01*
X268991Y196808D01*
X268991Y196800D01*
Y192450D01*
X278708D01*
Y196800D01*
X278728Y197300D01*
X287672Y197300D01*
X287692Y196808D01*
X287692Y196800D01*
Y192450D01*
X292050D01*
Y196808D01*
X290320D01*
X290300Y197300D01*
X290300Y197308D01*
X290300Y205792D01*
X292050D01*
Y210150D01*
X287692D01*
Y206200D01*
X278708D01*
Y210150D01*
X268991D01*
Y206200D01*
X259681D01*
Y207348D01*
X258000D01*
Y205265D01*
X257000D01*
Y207348D01*
X255319D01*
Y206200D01*
X247900D01*
X234200Y206200D01*
Y211319D01*
X235531D01*
Y213500D01*
Y215681D01*
X234200D01*
Y218400D01*
X235599Y218400D01*
Y217925D01*
X240349D01*
Y218400D01*
X247000Y218400D01*
X247000Y235860D01*
X247500Y236327D01*
X249156D01*
Y239000D01*
Y241673D01*
X247081Y241673D01*
X247000Y242140D01*
X247000Y280523D01*
X247354Y280877D01*
X299761Y280876D01*
Y156439D01*
X147539D01*
Y280877D01*
X182857Y280877D01*
D02*
G37*
G36*
X208670Y281177D02*
X209157Y281143D01*
Y272457D01*
X217843D01*
X218200Y272111D01*
Y268632D01*
X217700Y268532D01*
X217469Y269091D01*
X216740Y270040D01*
X215791Y270769D01*
X214750Y271200D01*
Y266800D01*
Y262400D01*
X215791Y262831D01*
X216740Y263560D01*
X217469Y264509D01*
X217700Y265068D01*
X218200Y264968D01*
X218200Y244354D01*
X217846Y244000D01*
X198600Y244000D01*
X198600Y280823D01*
X198953Y281177D01*
X208670Y281177D01*
D02*
G37*
G36*
X222700Y281200D02*
X222700Y249881D01*
X221335D01*
Y247700D01*
X220335D01*
Y249881D01*
X220100D01*
X220100Y280847D01*
X220454Y281200D01*
X222700Y281200D01*
D02*
G37*
G36*
X231512Y281277D02*
X231957Y281143D01*
Y272457D01*
X240643D01*
Y274965D01*
X241700D01*
X241700Y224354D01*
X241346Y224000D01*
X228600Y224000D01*
X228600Y210430D01*
X228246Y210077D01*
X222900Y210077D01*
X222900Y225046D01*
X223253Y225400D01*
X224400Y225400D01*
Y245519D01*
X224665D01*
Y247700D01*
Y249881D01*
X224400D01*
X224400Y280923D01*
X224753Y281277D01*
X231512Y281277D01*
D02*
G37*
%LPC*%
G36*
X217948Y227200D02*
X216365D01*
Y225519D01*
X217948D01*
Y227200D01*
D02*
G37*
G36*
Y229881D02*
X216365D01*
Y228200D01*
X217948D01*
Y229881D01*
D02*
G37*
G36*
X202749Y221981D02*
X201166D01*
Y220300D01*
X202749D01*
Y221981D01*
D02*
G37*
G36*
Y219300D02*
X201166D01*
Y217619D01*
X202749D01*
Y219300D01*
D02*
G37*
G36*
X174050Y195708D02*
X169692D01*
Y191350D01*
X174050D01*
Y195708D01*
D02*
G37*
G36*
X179409D02*
X175050D01*
Y191350D01*
X179409D01*
Y195708D01*
D02*
G37*
G36*
X155350Y209050D02*
X150991D01*
Y204692D01*
X155350D01*
Y209050D01*
D02*
G37*
G36*
X196075Y196327D02*
X194000D01*
Y194252D01*
X196075D01*
Y196327D01*
D02*
G37*
G36*
X155350Y214409D02*
X150991D01*
Y210050D01*
X155350D01*
Y214409D01*
D02*
G37*
G36*
X297409Y210150D02*
X293050D01*
Y205792D01*
X297409D01*
Y210150D01*
D02*
G37*
G36*
Y196808D02*
X293050D01*
Y192450D01*
X297409D01*
Y196808D01*
D02*
G37*
G36*
X219035Y193481D02*
X217452D01*
Y191800D01*
X219035D01*
Y193481D01*
D02*
G37*
G36*
X193000Y196327D02*
X190925D01*
Y194252D01*
X193000D01*
Y196327D01*
D02*
G37*
G36*
X218913Y196055D02*
X217823D01*
Y194177D01*
X218913D01*
Y196055D01*
D02*
G37*
G36*
X179409Y190350D02*
X175050D01*
Y185991D01*
X179409D01*
Y190350D01*
D02*
G37*
G36*
X273350Y191450D02*
X268991D01*
Y187091D01*
X273350D01*
Y191450D01*
D02*
G37*
G36*
X278708D02*
X274350D01*
Y187091D01*
X278708D01*
Y191450D01*
D02*
G37*
G36*
X155350Y190350D02*
X150991D01*
Y185991D01*
X155350D01*
Y190350D01*
D02*
G37*
G36*
X160708D02*
X156350D01*
Y185991D01*
X160708D01*
Y190350D01*
D02*
G37*
G36*
X174050D02*
X169692D01*
Y185991D01*
X174050D01*
Y190350D01*
D02*
G37*
G36*
X292050Y191450D02*
X287692D01*
Y187091D01*
X292050D01*
Y191450D01*
D02*
G37*
G36*
X196075Y193252D02*
X194000D01*
Y191177D01*
X196075D01*
Y193252D01*
D02*
G37*
G36*
X155350Y195708D02*
X150991D01*
Y191350D01*
X155350D01*
Y195708D01*
D02*
G37*
G36*
X160708D02*
X156350D01*
Y191350D01*
X160708D01*
Y195708D01*
D02*
G37*
G36*
X297409Y191450D02*
X293050D01*
Y187091D01*
X297409D01*
Y191450D01*
D02*
G37*
G36*
X219035Y190800D02*
X217452D01*
Y189119D01*
X219035D01*
Y190800D01*
D02*
G37*
G36*
X193000Y193252D02*
X190925D01*
Y191177D01*
X193000D01*
Y193252D01*
D02*
G37*
G36*
X160708Y214409D02*
X156350D01*
Y210050D01*
X160708D01*
Y214409D01*
D02*
G37*
G36*
X185950Y265550D02*
X182800D01*
X183231Y264509D01*
X183960Y263560D01*
X184909Y262831D01*
X185950Y262400D01*
Y265550D01*
D02*
G37*
G36*
X252231Y238500D02*
X250156D01*
Y236327D01*
X252231D01*
Y238500D01*
D02*
G37*
G36*
X250156Y241673D02*
Y239500D01*
X252231D01*
Y241673D01*
X250156D01*
D02*
G37*
G36*
X185950Y271200D02*
X184909Y270769D01*
X183960Y270040D01*
X183231Y269091D01*
X182800Y268050D01*
X185950D01*
Y271200D01*
D02*
G37*
G36*
X278708Y215509D02*
X274350D01*
Y211150D01*
X278708D01*
Y215509D01*
D02*
G37*
G36*
X292050D02*
X287692D01*
Y211150D01*
X292050D01*
Y215509D01*
D02*
G37*
G36*
X297409D02*
X293050D01*
Y211150D01*
X297409D01*
Y215509D01*
D02*
G37*
G36*
X174050Y214409D02*
X169692D01*
Y210050D01*
X174050D01*
Y214409D01*
D02*
G37*
G36*
X179409D02*
X175050D01*
Y210050D01*
X179409D01*
Y214409D01*
D02*
G37*
G36*
X273350Y215509D02*
X268991D01*
Y211150D01*
X273350D01*
Y215509D01*
D02*
G37*
G36*
X238113Y213000D02*
X236531D01*
Y211319D01*
X238113D01*
Y213000D01*
D02*
G37*
G36*
Y215681D02*
X236531D01*
Y214000D01*
X238113D01*
Y215681D01*
D02*
G37*
G36*
X212250Y265550D02*
X209100D01*
X209531Y264509D01*
X210260Y263560D01*
X211209Y262831D01*
X212250Y262400D01*
Y265550D01*
D02*
G37*
G36*
Y271200D02*
X211209Y270769D01*
X210260Y270040D01*
X209531Y269091D01*
X209100Y268050D01*
X212250D01*
Y271200D01*
D02*
G37*
G36*
X227248Y249881D02*
X225665D01*
Y248200D01*
X227248D01*
Y249881D01*
D02*
G37*
G36*
Y247200D02*
X225665D01*
Y245519D01*
X227248D01*
Y247200D01*
D02*
G37*
G36*
X235050Y271200D02*
X234009Y270769D01*
X233060Y270040D01*
X232331Y269091D01*
X231900Y268050D01*
X235050D01*
Y271200D01*
D02*
G37*
G36*
X237550D02*
Y268050D01*
X240700D01*
X240269Y269091D01*
X239540Y270040D01*
X238591Y270769D01*
X237550Y271200D01*
D02*
G37*
G36*
X235050Y265550D02*
X231900D01*
X232331Y264509D01*
X233060Y263560D01*
X234009Y262831D01*
X235050Y262400D01*
Y265550D01*
D02*
G37*
G36*
X240700D02*
X237550D01*
Y262400D01*
X238591Y262831D01*
X239540Y263560D01*
X240269Y264509D01*
X240700Y265550D01*
D02*
G37*
%LPD*%
D10*
X216000Y203969D02*
D03*
Y201969D02*
D03*
Y199969D02*
D03*
X226827D02*
D03*
Y201969D02*
D03*
Y203969D02*
D03*
D11*
X219413Y196555D02*
D03*
X221413D02*
D03*
X223413D02*
D03*
Y207382D02*
D03*
X221413D02*
D03*
X219413D02*
D03*
D12*
X221413Y201969D02*
D03*
D13*
X165200Y200200D02*
D03*
X283200Y201300D02*
D03*
D14*
X155850Y190850D02*
D03*
Y209550D02*
D03*
X174550D02*
D03*
Y190850D02*
D03*
X273850Y191950D02*
D03*
Y210650D02*
D03*
X292550D02*
D03*
Y191950D02*
D03*
D15*
X211535Y227700D02*
D03*
X215865D02*
D03*
X215265Y214100D02*
D03*
X210935D02*
D03*
X207579Y219800D02*
D03*
X203249D02*
D03*
X191735Y241300D02*
D03*
X196065D02*
D03*
X220835Y247700D02*
D03*
X225165D02*
D03*
X223865Y191300D02*
D03*
X219535D02*
D03*
X236031Y213500D02*
D03*
X231700D02*
D03*
D16*
X202200Y211565D02*
D03*
Y207235D02*
D03*
X257500Y200935D02*
D03*
Y205265D02*
D03*
D17*
X249656Y239000D02*
D03*
X244144D02*
D03*
D18*
X215568Y241300D02*
D03*
X211631D02*
D03*
D19*
X205700Y231737D02*
D03*
Y227800D02*
D03*
X211600Y232900D02*
D03*
Y236837D02*
D03*
D20*
X193500Y200051D02*
D03*
Y193752D02*
D03*
X221413Y234725D02*
D03*
Y228426D02*
D03*
D21*
X200126Y200000D02*
D03*
X206425D02*
D03*
X231675Y220300D02*
D03*
X237974D02*
D03*
X251025Y200932D02*
D03*
X244726D02*
D03*
D22*
X244243Y222743D02*
Y239000D01*
X199400Y211600D02*
X204400D01*
X195514Y215486D02*
Y241300D01*
X223382Y207382D02*
Y211582D01*
X213663Y203937D02*
X216000D01*
X210400Y200000D02*
X216000D01*
X219445Y207350D02*
Y209555D01*
X211586Y222314D02*
Y232886D01*
X226827Y200000D02*
X229500D01*
X223382Y191668D02*
Y196555D01*
X226827Y203937D02*
X229637D01*
X231700Y206000D02*
Y213500D01*
X231675Y213525D02*
X231700Y213500D01*
X231675Y213525D02*
Y220300D01*
X215265Y213735D02*
X219445Y209555D01*
X215265Y213735D02*
Y214100D01*
Y218635D01*
X210935Y206665D02*
Y214100D01*
Y206665D02*
X213663Y203937D01*
X207579Y219800D02*
Y223021D01*
X207028Y219800D02*
X207579D01*
X205700Y224900D02*
X207579Y223021D01*
X210935Y214100D02*
Y216445D01*
X207579Y219800D02*
X210935Y216445D01*
X207200Y206000D02*
Y208800D01*
X204400Y211600D02*
X207200Y208800D01*
X195514Y215486D02*
X199400Y211600D01*
X211586Y222314D02*
X215265Y218635D01*
X221413Y241200D02*
Y247672D01*
X221313Y241300D02*
X221413Y241200D01*
X215568Y241300D02*
X221313D01*
X194600Y200051D02*
X194651Y200000D01*
X229637Y203937D02*
X231700Y206000D01*
X232000Y220251D02*
X232049Y220300D01*
X211231Y201969D02*
X216000D01*
X207200Y206000D02*
X211231Y201969D01*
X241800Y220300D02*
X244243Y222743D01*
X221386Y247700D02*
X221413Y247672D01*
X211586Y232886D02*
X211600Y232900D01*
X211631Y236869D02*
Y241300D01*
X211600Y236837D02*
X211631Y236869D01*
X205700Y224900D02*
Y227800D01*
X226827Y201969D02*
X229395D01*
X230432Y200932D01*
X229500Y200000D02*
X230432Y200932D01*
X205700Y231737D02*
Y241200D01*
X205600Y241300D02*
X205700Y241200D01*
X205600Y241300D02*
X211631D01*
X195514D02*
X196065D01*
X205600D01*
X193500Y200051D02*
X194600D01*
X221413Y207382D02*
Y228426D01*
Y228800D01*
X237600Y220300D02*
X237974D01*
X241800D01*
X221413Y234351D02*
Y234725D01*
Y241200D01*
D23*
X282828Y200935D02*
X282832Y200932D01*
X251025D02*
X257500D01*
Y200935D02*
X282828D01*
X193500Y200000D02*
X194651D01*
X193424Y200076D02*
X193500Y200000D01*
X165200Y201300D02*
X166424Y200076D01*
X194651Y200000D02*
X200126D01*
X166424Y200076D02*
X193424D01*
X282832Y200932D02*
X283200Y201300D01*
X250651Y200932D02*
X251025D01*
X200126Y200000D02*
X200500D01*
X206051D02*
X206425D01*
X210000D01*
X230432Y200932D02*
X244726D01*
X245100D01*
D24*
X236300Y276800D02*
X244200D01*
X187200D02*
X195500D01*
D25*
X213500D02*
X221400D01*
D26*
X213500D02*
D03*
X187200D02*
D03*
X236300D02*
D03*
D27*
X213500Y266800D02*
D03*
X187200D02*
D03*
X236300D02*
D03*
D28*
X288000Y272000D02*
D03*
Y264000D02*
D03*
Y256000D02*
D03*
Y248000D02*
D03*
Y240000D02*
D03*
Y232000D02*
D03*
Y224000D02*
D03*
Y184000D02*
D03*
Y176000D02*
D03*
Y168000D02*
D03*
Y160000D02*
D03*
X280000Y272000D02*
D03*
Y264000D02*
D03*
Y256000D02*
D03*
Y248000D02*
D03*
Y240000D02*
D03*
Y232000D02*
D03*
Y224000D02*
D03*
Y184000D02*
D03*
Y176000D02*
D03*
Y168000D02*
D03*
Y160000D02*
D03*
X272000Y272000D02*
D03*
Y264000D02*
D03*
Y256000D02*
D03*
Y248000D02*
D03*
Y240000D02*
D03*
Y232000D02*
D03*
Y224000D02*
D03*
Y184000D02*
D03*
Y176000D02*
D03*
Y168000D02*
D03*
Y160000D02*
D03*
X264000Y272000D02*
D03*
Y264000D02*
D03*
Y256000D02*
D03*
Y248000D02*
D03*
Y240000D02*
D03*
Y232000D02*
D03*
Y224000D02*
D03*
Y216000D02*
D03*
Y192000D02*
D03*
Y184000D02*
D03*
Y176000D02*
D03*
Y168000D02*
D03*
Y160000D02*
D03*
X256000Y272000D02*
D03*
Y264000D02*
D03*
Y256000D02*
D03*
Y248000D02*
D03*
Y240000D02*
D03*
Y232000D02*
D03*
Y224000D02*
D03*
Y216000D02*
D03*
Y192000D02*
D03*
Y184000D02*
D03*
Y176000D02*
D03*
Y168000D02*
D03*
Y160000D02*
D03*
X248000Y216000D02*
D03*
Y192000D02*
D03*
Y184000D02*
D03*
Y176000D02*
D03*
Y168000D02*
D03*
Y160000D02*
D03*
X240000Y192000D02*
D03*
Y184000D02*
D03*
Y176000D02*
D03*
Y168000D02*
D03*
Y160000D02*
D03*
X232000Y256000D02*
D03*
Y248000D02*
D03*
Y240000D02*
D03*
Y232000D02*
D03*
Y192000D02*
D03*
Y184000D02*
D03*
Y176000D02*
D03*
Y168000D02*
D03*
Y160000D02*
D03*
X224000Y184000D02*
D03*
Y176000D02*
D03*
Y168000D02*
D03*
Y160000D02*
D03*
X216000Y256000D02*
D03*
Y248000D02*
D03*
Y184000D02*
D03*
Y176000D02*
D03*
Y168000D02*
D03*
Y160000D02*
D03*
X208000Y256000D02*
D03*
Y248000D02*
D03*
Y192000D02*
D03*
Y184000D02*
D03*
Y176000D02*
D03*
Y168000D02*
D03*
Y160000D02*
D03*
X200000Y192000D02*
D03*
Y184000D02*
D03*
Y176000D02*
D03*
Y168000D02*
D03*
Y160000D02*
D03*
X192000Y208000D02*
D03*
Y184000D02*
D03*
Y176000D02*
D03*
Y168000D02*
D03*
Y160000D02*
D03*
X184000Y256000D02*
D03*
Y248000D02*
D03*
Y240000D02*
D03*
Y232000D02*
D03*
Y224000D02*
D03*
Y216000D02*
D03*
Y208000D02*
D03*
Y192000D02*
D03*
Y184000D02*
D03*
Y176000D02*
D03*
Y168000D02*
D03*
Y160000D02*
D03*
X176000Y272000D02*
D03*
Y264000D02*
D03*
Y256000D02*
D03*
Y248000D02*
D03*
Y240000D02*
D03*
Y232000D02*
D03*
Y224000D02*
D03*
Y184000D02*
D03*
Y176000D02*
D03*
Y168000D02*
D03*
Y160000D02*
D03*
X168000Y272000D02*
D03*
Y264000D02*
D03*
Y256000D02*
D03*
Y248000D02*
D03*
Y240000D02*
D03*
Y232000D02*
D03*
Y224000D02*
D03*
Y184000D02*
D03*
Y176000D02*
D03*
Y168000D02*
D03*
Y160000D02*
D03*
X160000Y272000D02*
D03*
Y264000D02*
D03*
Y256000D02*
D03*
Y248000D02*
D03*
Y240000D02*
D03*
Y232000D02*
D03*
Y224000D02*
D03*
Y184000D02*
D03*
Y176000D02*
D03*
Y168000D02*
D03*
Y160000D02*
D03*
X152000Y272000D02*
D03*
Y264000D02*
D03*
Y256000D02*
D03*
Y248000D02*
D03*
Y240000D02*
D03*
Y232000D02*
D03*
Y224000D02*
D03*
Y200000D02*
D03*
Y184000D02*
D03*
Y176000D02*
D03*
Y168000D02*
D03*
Y160000D02*
D03*
X216300Y223200D02*
D03*
X216200Y234500D02*
D03*
X200800Y235400D02*
D03*
Y225400D02*
D03*
M02*
